<?xml version="1.0" encoding="utf-8" standalone="no"?>
<!DOCTYPE svg PUBLIC "-//W3C//DTD SVG 1.1//EN"
  "http://www.w3.org/Graphics/SVG/1.1/DTD/svg11.dtd">
<svg xmlns:xlink="http://www.w3.org/1999/xlink" width="576pt" height="360pt" viewBox="0 0 576 360" xmlns="http://www.w3.org/2000/svg" version="1.1">
 <metadata>
  <rdf:RDF xmlns:dc="http://purl.org/dc/elements/1.1/" xmlns:cc="http://creativecommons.org/ns#" xmlns:rdf="http://www.w3.org/1999/02/22-rdf-syntax-ns#">
   <cc:Work>
    <dc:type rdf:resource="http://purl.org/dc/dcmitype/StillImage"/>
    <dc:date>2025-05-17T11:10:05.913309</dc:date>
    <dc:format>image/svg+xml</dc:format>
    <dc:creator>
     <cc:Agent>
      <dc:title>Matplotlib v3.10.1, https://matplotlib.org/</dc:title>
     </cc:Agent>
    </dc:creator>
   </cc:Work>
  </rdf:RDF>
 </metadata>
 <defs>
  <style type="text/css">*{stroke-linejoin: round; stroke-linecap: butt}</style>
 </defs>
 <g id="figure_1">
  <g id="patch_1">
   <path d="M 0 360 
L 576 360 
L 576 0 
L 0 0 
z
" style="fill: #ffffff"/>
  </g>
  <g id="axes_1">
   <g id="patch_2">
    <path d="M 72 320.4 
L 518.4 320.4 
L 518.4 43.2 
L 72 43.2 
z
" style="fill: #ffffff"/>
   </g>
   <g id="matplotlib.axis_1">
    <g id="xtick_1">
     <g id="line2d_1">
      <path d="M 92.290909 320.4 
L 92.290909 43.2 
" clip-path="url(#pe5aa9acad4)" style="fill: none; stroke: #cccccc; stroke-linecap: round"/>
     </g>
     <g id="text_1">
      <!-- 0.970 -->
      <g style="fill: #262626" transform="translate(76.54544 338.258281) scale(0.11 -0.11)">
       <defs>
        <path id="DejaVuSans-30" d="M 2034 4250 
Q 1547 4250 1301 3770 
Q 1056 3291 1056 2328 
Q 1056 1369 1301 889 
Q 1547 409 2034 409 
Q 2525 409 2770 889 
Q 3016 1369 3016 2328 
Q 3016 3291 2770 3770 
Q 2525 4250 2034 4250 
z
M 2034 4750 
Q 2819 4750 3233 4129 
Q 3647 3509 3647 2328 
Q 3647 1150 3233 529 
Q 2819 -91 2034 -91 
Q 1250 -91 836 529 
Q 422 1150 422 2328 
Q 422 3509 836 4129 
Q 1250 4750 2034 4750 
z
" transform="scale(0.015625)"/>
        <path id="DejaVuSans-2e" d="M 684 794 
L 1344 794 
L 1344 0 
L 684 0 
L 684 794 
z
" transform="scale(0.015625)"/>
        <path id="DejaVuSans-39" d="M 703 97 
L 703 672 
Q 941 559 1184 500 
Q 1428 441 1663 441 
Q 2288 441 2617 861 
Q 2947 1281 2994 2138 
Q 2813 1869 2534 1725 
Q 2256 1581 1919 1581 
Q 1219 1581 811 2004 
Q 403 2428 403 3163 
Q 403 3881 828 4315 
Q 1253 4750 1959 4750 
Q 2769 4750 3195 4129 
Q 3622 3509 3622 2328 
Q 3622 1225 3098 567 
Q 2575 -91 1691 -91 
Q 1453 -91 1209 -44 
Q 966 3 703 97 
z
M 1959 2075 
Q 2384 2075 2632 2365 
Q 2881 2656 2881 3163 
Q 2881 3666 2632 3958 
Q 2384 4250 1959 4250 
Q 1534 4250 1286 3958 
Q 1038 3666 1038 3163 
Q 1038 2656 1286 2365 
Q 1534 2075 1959 2075 
z
" transform="scale(0.015625)"/>
        <path id="DejaVuSans-37" d="M 525 4666 
L 3525 4666 
L 3525 4397 
L 1831 0 
L 1172 0 
L 2766 4134 
L 525 4134 
L 525 4666 
z
" transform="scale(0.015625)"/>
       </defs>
       <use xlink:href="#DejaVuSans-30"/>
       <use xlink:href="#DejaVuSans-2e" transform="translate(63.623047 0)"/>
       <use xlink:href="#DejaVuSans-39" transform="translate(95.410156 0)"/>
       <use xlink:href="#DejaVuSans-37" transform="translate(159.033203 0)"/>
       <use xlink:href="#DejaVuSans-30" transform="translate(222.65625 0)"/>
      </g>
     </g>
    </g>
    <g id="xtick_2">
     <g id="line2d_2">
      <path d="M 159.927273 320.4 
L 159.927273 43.2 
" clip-path="url(#pe5aa9acad4)" style="fill: none; stroke: #cccccc; stroke-linecap: round"/>
     </g>
     <g id="text_2">
      <!-- 0.975 -->
      <g style="fill: #262626" transform="translate(144.181804 338.258281) scale(0.11 -0.11)">
       <defs>
        <path id="DejaVuSans-35" d="M 691 4666 
L 3169 4666 
L 3169 4134 
L 1269 4134 
L 1269 2991 
Q 1406 3038 1543 3061 
Q 1681 3084 1819 3084 
Q 2600 3084 3056 2656 
Q 3513 2228 3513 1497 
Q 3513 744 3044 326 
Q 2575 -91 1722 -91 
Q 1428 -91 1123 -41 
Q 819 9 494 109 
L 494 744 
Q 775 591 1075 516 
Q 1375 441 1709 441 
Q 2250 441 2565 725 
Q 2881 1009 2881 1497 
Q 2881 1984 2565 2268 
Q 2250 2553 1709 2553 
Q 1456 2553 1204 2497 
Q 953 2441 691 2322 
L 691 4666 
z
" transform="scale(0.015625)"/>
       </defs>
       <use xlink:href="#DejaVuSans-30"/>
       <use xlink:href="#DejaVuSans-2e" transform="translate(63.623047 0)"/>
       <use xlink:href="#DejaVuSans-39" transform="translate(95.410156 0)"/>
       <use xlink:href="#DejaVuSans-37" transform="translate(159.033203 0)"/>
       <use xlink:href="#DejaVuSans-35" transform="translate(222.65625 0)"/>
      </g>
     </g>
    </g>
    <g id="xtick_3">
     <g id="line2d_3">
      <path d="M 227.563636 320.4 
L 227.563636 43.2 
" clip-path="url(#pe5aa9acad4)" style="fill: none; stroke: #cccccc; stroke-linecap: round"/>
     </g>
     <g id="text_3">
      <!-- 0.980 -->
      <g style="fill: #262626" transform="translate(211.818168 338.258281) scale(0.11 -0.11)">
       <defs>
        <path id="DejaVuSans-38" d="M 2034 2216 
Q 1584 2216 1326 1975 
Q 1069 1734 1069 1313 
Q 1069 891 1326 650 
Q 1584 409 2034 409 
Q 2484 409 2743 651 
Q 3003 894 3003 1313 
Q 3003 1734 2745 1975 
Q 2488 2216 2034 2216 
z
M 1403 2484 
Q 997 2584 770 2862 
Q 544 3141 544 3541 
Q 544 4100 942 4425 
Q 1341 4750 2034 4750 
Q 2731 4750 3128 4425 
Q 3525 4100 3525 3541 
Q 3525 3141 3298 2862 
Q 3072 2584 2669 2484 
Q 3125 2378 3379 2068 
Q 3634 1759 3634 1313 
Q 3634 634 3220 271 
Q 2806 -91 2034 -91 
Q 1263 -91 848 271 
Q 434 634 434 1313 
Q 434 1759 690 2068 
Q 947 2378 1403 2484 
z
M 1172 3481 
Q 1172 3119 1398 2916 
Q 1625 2713 2034 2713 
Q 2441 2713 2670 2916 
Q 2900 3119 2900 3481 
Q 2900 3844 2670 4047 
Q 2441 4250 2034 4250 
Q 1625 4250 1398 4047 
Q 1172 3844 1172 3481 
z
" transform="scale(0.015625)"/>
       </defs>
       <use xlink:href="#DejaVuSans-30"/>
       <use xlink:href="#DejaVuSans-2e" transform="translate(63.623047 0)"/>
       <use xlink:href="#DejaVuSans-39" transform="translate(95.410156 0)"/>
       <use xlink:href="#DejaVuSans-38" transform="translate(159.033203 0)"/>
       <use xlink:href="#DejaVuSans-30" transform="translate(222.65625 0)"/>
      </g>
     </g>
    </g>
    <g id="xtick_4">
     <g id="line2d_4">
      <path d="M 295.2 320.4 
L 295.2 43.2 
" clip-path="url(#pe5aa9acad4)" style="fill: none; stroke: #cccccc; stroke-linecap: round"/>
     </g>
     <g id="text_4">
      <!-- 0.985 -->
      <g style="fill: #262626" transform="translate(279.454531 338.258281) scale(0.11 -0.11)">
       <use xlink:href="#DejaVuSans-30"/>
       <use xlink:href="#DejaVuSans-2e" transform="translate(63.623047 0)"/>
       <use xlink:href="#DejaVuSans-39" transform="translate(95.410156 0)"/>
       <use xlink:href="#DejaVuSans-38" transform="translate(159.033203 0)"/>
       <use xlink:href="#DejaVuSans-35" transform="translate(222.65625 0)"/>
      </g>
     </g>
    </g>
    <g id="xtick_5">
     <g id="line2d_5">
      <path d="M 362.836364 320.4 
L 362.836364 43.2 
" clip-path="url(#pe5aa9acad4)" style="fill: none; stroke: #cccccc; stroke-linecap: round"/>
     </g>
     <g id="text_5">
      <!-- 0.990 -->
      <g style="fill: #262626" transform="translate(347.090895 338.258281) scale(0.11 -0.11)">
       <use xlink:href="#DejaVuSans-30"/>
       <use xlink:href="#DejaVuSans-2e" transform="translate(63.623047 0)"/>
       <use xlink:href="#DejaVuSans-39" transform="translate(95.410156 0)"/>
       <use xlink:href="#DejaVuSans-39" transform="translate(159.033203 0)"/>
       <use xlink:href="#DejaVuSans-30" transform="translate(222.65625 0)"/>
      </g>
     </g>
    </g>
    <g id="xtick_6">
     <g id="line2d_6">
      <path d="M 430.472727 320.4 
L 430.472727 43.2 
" clip-path="url(#pe5aa9acad4)" style="fill: none; stroke: #cccccc; stroke-linecap: round"/>
     </g>
     <g id="text_6">
      <!-- 0.995 -->
      <g style="fill: #262626" transform="translate(414.727259 338.258281) scale(0.11 -0.11)">
       <use xlink:href="#DejaVuSans-30"/>
       <use xlink:href="#DejaVuSans-2e" transform="translate(63.623047 0)"/>
       <use xlink:href="#DejaVuSans-39" transform="translate(95.410156 0)"/>
       <use xlink:href="#DejaVuSans-39" transform="translate(159.033203 0)"/>
       <use xlink:href="#DejaVuSans-35" transform="translate(222.65625 0)"/>
      </g>
     </g>
    </g>
    <g id="xtick_7">
     <g id="line2d_7">
      <path d="M 498.109091 320.4 
L 498.109091 43.2 
" clip-path="url(#pe5aa9acad4)" style="fill: none; stroke: #cccccc; stroke-linecap: round"/>
     </g>
     <g id="text_7">
      <!-- 1.000 -->
      <g style="fill: #262626" transform="translate(482.363622 338.258281) scale(0.11 -0.11)">
       <defs>
        <path id="DejaVuSans-31" d="M 794 531 
L 1825 531 
L 1825 4091 
L 703 3866 
L 703 4441 
L 1819 4666 
L 2450 4666 
L 2450 531 
L 3481 531 
L 3481 0 
L 794 0 
L 794 531 
z
" transform="scale(0.015625)"/>
       </defs>
       <use xlink:href="#DejaVuSans-31"/>
       <use xlink:href="#DejaVuSans-2e" transform="translate(63.623047 0)"/>
       <use xlink:href="#DejaVuSans-30" transform="translate(95.410156 0)"/>
       <use xlink:href="#DejaVuSans-30" transform="translate(159.033203 0)"/>
       <use xlink:href="#DejaVuSans-30" transform="translate(222.65625 0)"/>
      </g>
     </g>
    </g>
    <g id="text_8">
     <!-- Identity score -->
     <g style="fill: #262626" transform="translate(254.177812 353.664062) scale(0.12 -0.12)">
      <defs>
       <path id="DejaVuSans-49" d="M 628 4666 
L 1259 4666 
L 1259 0 
L 628 0 
L 628 4666 
z
" transform="scale(0.015625)"/>
       <path id="DejaVuSans-64" d="M 2906 2969 
L 2906 4863 
L 3481 4863 
L 3481 0 
L 2906 0 
L 2906 525 
Q 2725 213 2448 61 
Q 2172 -91 1784 -91 
Q 1150 -91 751 415 
Q 353 922 353 1747 
Q 353 2572 751 3078 
Q 1150 3584 1784 3584 
Q 2172 3584 2448 3432 
Q 2725 3281 2906 2969 
z
M 947 1747 
Q 947 1113 1208 752 
Q 1469 391 1925 391 
Q 2381 391 2643 752 
Q 2906 1113 2906 1747 
Q 2906 2381 2643 2742 
Q 2381 3103 1925 3103 
Q 1469 3103 1208 2742 
Q 947 2381 947 1747 
z
" transform="scale(0.015625)"/>
       <path id="DejaVuSans-65" d="M 3597 1894 
L 3597 1613 
L 953 1613 
Q 991 1019 1311 708 
Q 1631 397 2203 397 
Q 2534 397 2845 478 
Q 3156 559 3463 722 
L 3463 178 
Q 3153 47 2828 -22 
Q 2503 -91 2169 -91 
Q 1331 -91 842 396 
Q 353 884 353 1716 
Q 353 2575 817 3079 
Q 1281 3584 2069 3584 
Q 2775 3584 3186 3129 
Q 3597 2675 3597 1894 
z
M 3022 2063 
Q 3016 2534 2758 2815 
Q 2500 3097 2075 3097 
Q 1594 3097 1305 2825 
Q 1016 2553 972 2059 
L 3022 2063 
z
" transform="scale(0.015625)"/>
       <path id="DejaVuSans-6e" d="M 3513 2113 
L 3513 0 
L 2938 0 
L 2938 2094 
Q 2938 2591 2744 2837 
Q 2550 3084 2163 3084 
Q 1697 3084 1428 2787 
Q 1159 2491 1159 1978 
L 1159 0 
L 581 0 
L 581 3500 
L 1159 3500 
L 1159 2956 
Q 1366 3272 1645 3428 
Q 1925 3584 2291 3584 
Q 2894 3584 3203 3211 
Q 3513 2838 3513 2113 
z
" transform="scale(0.015625)"/>
       <path id="DejaVuSans-74" d="M 1172 4494 
L 1172 3500 
L 2356 3500 
L 2356 3053 
L 1172 3053 
L 1172 1153 
Q 1172 725 1289 603 
Q 1406 481 1766 481 
L 2356 481 
L 2356 0 
L 1766 0 
Q 1100 0 847 248 
Q 594 497 594 1153 
L 594 3053 
L 172 3053 
L 172 3500 
L 594 3500 
L 594 4494 
L 1172 4494 
z
" transform="scale(0.015625)"/>
       <path id="DejaVuSans-69" d="M 603 3500 
L 1178 3500 
L 1178 0 
L 603 0 
L 603 3500 
z
M 603 4863 
L 1178 4863 
L 1178 4134 
L 603 4134 
L 603 4863 
z
" transform="scale(0.015625)"/>
       <path id="DejaVuSans-79" d="M 2059 -325 
Q 1816 -950 1584 -1140 
Q 1353 -1331 966 -1331 
L 506 -1331 
L 506 -850 
L 844 -850 
Q 1081 -850 1212 -737 
Q 1344 -625 1503 -206 
L 1606 56 
L 191 3500 
L 800 3500 
L 1894 763 
L 2988 3500 
L 3597 3500 
L 2059 -325 
z
" transform="scale(0.015625)"/>
       <path id="DejaVuSans-20" transform="scale(0.015625)"/>
       <path id="DejaVuSans-73" d="M 2834 3397 
L 2834 2853 
Q 2591 2978 2328 3040 
Q 2066 3103 1784 3103 
Q 1356 3103 1142 2972 
Q 928 2841 928 2578 
Q 928 2378 1081 2264 
Q 1234 2150 1697 2047 
L 1894 2003 
Q 2506 1872 2764 1633 
Q 3022 1394 3022 966 
Q 3022 478 2636 193 
Q 2250 -91 1575 -91 
Q 1294 -91 989 -36 
Q 684 19 347 128 
L 347 722 
Q 666 556 975 473 
Q 1284 391 1588 391 
Q 1994 391 2212 530 
Q 2431 669 2431 922 
Q 2431 1156 2273 1281 
Q 2116 1406 1581 1522 
L 1381 1569 
Q 847 1681 609 1914 
Q 372 2147 372 2553 
Q 372 3047 722 3315 
Q 1072 3584 1716 3584 
Q 2034 3584 2315 3537 
Q 2597 3491 2834 3397 
z
" transform="scale(0.015625)"/>
       <path id="DejaVuSans-63" d="M 3122 3366 
L 3122 2828 
Q 2878 2963 2633 3030 
Q 2388 3097 2138 3097 
Q 1578 3097 1268 2742 
Q 959 2388 959 1747 
Q 959 1106 1268 751 
Q 1578 397 2138 397 
Q 2388 397 2633 464 
Q 2878 531 3122 666 
L 3122 134 
Q 2881 22 2623 -34 
Q 2366 -91 2075 -91 
Q 1284 -91 818 406 
Q 353 903 353 1747 
Q 353 2603 823 3093 
Q 1294 3584 2113 3584 
Q 2378 3584 2631 3529 
Q 2884 3475 3122 3366 
z
" transform="scale(0.015625)"/>
       <path id="DejaVuSans-6f" d="M 1959 3097 
Q 1497 3097 1228 2736 
Q 959 2375 959 1747 
Q 959 1119 1226 758 
Q 1494 397 1959 397 
Q 2419 397 2687 759 
Q 2956 1122 2956 1747 
Q 2956 2369 2687 2733 
Q 2419 3097 1959 3097 
z
M 1959 3584 
Q 2709 3584 3137 3096 
Q 3566 2609 3566 1747 
Q 3566 888 3137 398 
Q 2709 -91 1959 -91 
Q 1206 -91 779 398 
Q 353 888 353 1747 
Q 353 2609 779 3096 
Q 1206 3584 1959 3584 
z
" transform="scale(0.015625)"/>
       <path id="DejaVuSans-72" d="M 2631 2963 
Q 2534 3019 2420 3045 
Q 2306 3072 2169 3072 
Q 1681 3072 1420 2755 
Q 1159 2438 1159 1844 
L 1159 0 
L 581 0 
L 581 3500 
L 1159 3500 
L 1159 2956 
Q 1341 3275 1631 3429 
Q 1922 3584 2338 3584 
Q 2397 3584 2469 3576 
Q 2541 3569 2628 3553 
L 2631 2963 
z
" transform="scale(0.015625)"/>
      </defs>
      <use xlink:href="#DejaVuSans-49"/>
      <use xlink:href="#DejaVuSans-64" transform="translate(29.492188 0)"/>
      <use xlink:href="#DejaVuSans-65" transform="translate(92.96875 0)"/>
      <use xlink:href="#DejaVuSans-6e" transform="translate(154.492188 0)"/>
      <use xlink:href="#DejaVuSans-74" transform="translate(217.871094 0)"/>
      <use xlink:href="#DejaVuSans-69" transform="translate(257.080078 0)"/>
      <use xlink:href="#DejaVuSans-74" transform="translate(284.863281 0)"/>
      <use xlink:href="#DejaVuSans-79" transform="translate(324.072266 0)"/>
      <use xlink:href="#DejaVuSans-20" transform="translate(383.251953 0)"/>
      <use xlink:href="#DejaVuSans-73" transform="translate(415.039062 0)"/>
      <use xlink:href="#DejaVuSans-63" transform="translate(467.138672 0)"/>
      <use xlink:href="#DejaVuSans-6f" transform="translate(522.119141 0)"/>
      <use xlink:href="#DejaVuSans-72" transform="translate(583.300781 0)"/>
      <use xlink:href="#DejaVuSans-65" transform="translate(622.164062 0)"/>
     </g>
    </g>
   </g>
   <g id="matplotlib.axis_2">
    <g id="ytick_1">
     <g id="line2d_8">
      <path d="M 72 320.4 
L 518.4 320.4 
" clip-path="url(#pe5aa9acad4)" style="fill: none; stroke: #cccccc; stroke-linecap: round"/>
     </g>
     <g id="text_9">
      <!-- 0 -->
      <g style="fill: #262626" transform="translate(55.50125 324.579141) scale(0.11 -0.11)">
       <use xlink:href="#DejaVuSans-30"/>
      </g>
     </g>
    </g>
    <g id="ytick_2">
     <g id="line2d_9">
      <path d="M 72 281.576471 
L 518.4 281.576471 
" clip-path="url(#pe5aa9acad4)" style="fill: none; stroke: #cccccc; stroke-linecap: round"/>
     </g>
     <g id="text_10">
      <!-- 100 -->
      <g style="fill: #262626" transform="translate(41.50375 285.755611) scale(0.11 -0.11)">
       <use xlink:href="#DejaVuSans-31"/>
       <use xlink:href="#DejaVuSans-30" transform="translate(63.623047 0)"/>
       <use xlink:href="#DejaVuSans-30" transform="translate(127.246094 0)"/>
      </g>
     </g>
    </g>
    <g id="ytick_3">
     <g id="line2d_10">
      <path d="M 72 242.752941 
L 518.4 242.752941 
" clip-path="url(#pe5aa9acad4)" style="fill: none; stroke: #cccccc; stroke-linecap: round"/>
     </g>
     <g id="text_11">
      <!-- 200 -->
      <g style="fill: #262626" transform="translate(41.50375 246.932082) scale(0.11 -0.11)">
       <defs>
        <path id="DejaVuSans-32" d="M 1228 531 
L 3431 531 
L 3431 0 
L 469 0 
L 469 531 
Q 828 903 1448 1529 
Q 2069 2156 2228 2338 
Q 2531 2678 2651 2914 
Q 2772 3150 2772 3378 
Q 2772 3750 2511 3984 
Q 2250 4219 1831 4219 
Q 1534 4219 1204 4116 
Q 875 4013 500 3803 
L 500 4441 
Q 881 4594 1212 4672 
Q 1544 4750 1819 4750 
Q 2544 4750 2975 4387 
Q 3406 4025 3406 3419 
Q 3406 3131 3298 2873 
Q 3191 2616 2906 2266 
Q 2828 2175 2409 1742 
Q 1991 1309 1228 531 
z
" transform="scale(0.015625)"/>
       </defs>
       <use xlink:href="#DejaVuSans-32"/>
       <use xlink:href="#DejaVuSans-30" transform="translate(63.623047 0)"/>
       <use xlink:href="#DejaVuSans-30" transform="translate(127.246094 0)"/>
      </g>
     </g>
    </g>
    <g id="ytick_4">
     <g id="line2d_11">
      <path d="M 72 203.929412 
L 518.4 203.929412 
" clip-path="url(#pe5aa9acad4)" style="fill: none; stroke: #cccccc; stroke-linecap: round"/>
     </g>
     <g id="text_12">
      <!-- 300 -->
      <g style="fill: #262626" transform="translate(41.50375 208.108552) scale(0.11 -0.11)">
       <defs>
        <path id="DejaVuSans-33" d="M 2597 2516 
Q 3050 2419 3304 2112 
Q 3559 1806 3559 1356 
Q 3559 666 3084 287 
Q 2609 -91 1734 -91 
Q 1441 -91 1130 -33 
Q 819 25 488 141 
L 488 750 
Q 750 597 1062 519 
Q 1375 441 1716 441 
Q 2309 441 2620 675 
Q 2931 909 2931 1356 
Q 2931 1769 2642 2001 
Q 2353 2234 1838 2234 
L 1294 2234 
L 1294 2753 
L 1863 2753 
Q 2328 2753 2575 2939 
Q 2822 3125 2822 3475 
Q 2822 3834 2567 4026 
Q 2313 4219 1838 4219 
Q 1578 4219 1281 4162 
Q 984 4106 628 3988 
L 628 4550 
Q 988 4650 1302 4700 
Q 1616 4750 1894 4750 
Q 2613 4750 3031 4423 
Q 3450 4097 3450 3541 
Q 3450 3153 3228 2886 
Q 3006 2619 2597 2516 
z
" transform="scale(0.015625)"/>
       </defs>
       <use xlink:href="#DejaVuSans-33"/>
       <use xlink:href="#DejaVuSans-30" transform="translate(63.623047 0)"/>
       <use xlink:href="#DejaVuSans-30" transform="translate(127.246094 0)"/>
      </g>
     </g>
    </g>
    <g id="ytick_5">
     <g id="line2d_12">
      <path d="M 72 165.105882 
L 518.4 165.105882 
" clip-path="url(#pe5aa9acad4)" style="fill: none; stroke: #cccccc; stroke-linecap: round"/>
     </g>
     <g id="text_13">
      <!-- 400 -->
      <g style="fill: #262626" transform="translate(41.50375 169.285023) scale(0.11 -0.11)">
       <defs>
        <path id="DejaVuSans-34" d="M 2419 4116 
L 825 1625 
L 2419 1625 
L 2419 4116 
z
M 2253 4666 
L 3047 4666 
L 3047 1625 
L 3713 1625 
L 3713 1100 
L 3047 1100 
L 3047 0 
L 2419 0 
L 2419 1100 
L 313 1100 
L 313 1709 
L 2253 4666 
z
" transform="scale(0.015625)"/>
       </defs>
       <use xlink:href="#DejaVuSans-34"/>
       <use xlink:href="#DejaVuSans-30" transform="translate(63.623047 0)"/>
       <use xlink:href="#DejaVuSans-30" transform="translate(127.246094 0)"/>
      </g>
     </g>
    </g>
    <g id="ytick_6">
     <g id="line2d_13">
      <path d="M 72 126.282353 
L 518.4 126.282353 
" clip-path="url(#pe5aa9acad4)" style="fill: none; stroke: #cccccc; stroke-linecap: round"/>
     </g>
     <g id="text_14">
      <!-- 500 -->
      <g style="fill: #262626" transform="translate(41.50375 130.461494) scale(0.11 -0.11)">
       <use xlink:href="#DejaVuSans-35"/>
       <use xlink:href="#DejaVuSans-30" transform="translate(63.623047 0)"/>
       <use xlink:href="#DejaVuSans-30" transform="translate(127.246094 0)"/>
      </g>
     </g>
    </g>
    <g id="ytick_7">
     <g id="line2d_14">
      <path d="M 72 87.458824 
L 518.4 87.458824 
" clip-path="url(#pe5aa9acad4)" style="fill: none; stroke: #cccccc; stroke-linecap: round"/>
     </g>
     <g id="text_15">
      <!-- 600 -->
      <g style="fill: #262626" transform="translate(41.50375 91.637964) scale(0.11 -0.11)">
       <defs>
        <path id="DejaVuSans-36" d="M 2113 2584 
Q 1688 2584 1439 2293 
Q 1191 2003 1191 1497 
Q 1191 994 1439 701 
Q 1688 409 2113 409 
Q 2538 409 2786 701 
Q 3034 994 3034 1497 
Q 3034 2003 2786 2293 
Q 2538 2584 2113 2584 
z
M 3366 4563 
L 3366 3988 
Q 3128 4100 2886 4159 
Q 2644 4219 2406 4219 
Q 1781 4219 1451 3797 
Q 1122 3375 1075 2522 
Q 1259 2794 1537 2939 
Q 1816 3084 2150 3084 
Q 2853 3084 3261 2657 
Q 3669 2231 3669 1497 
Q 3669 778 3244 343 
Q 2819 -91 2113 -91 
Q 1303 -91 875 529 
Q 447 1150 447 2328 
Q 447 3434 972 4092 
Q 1497 4750 2381 4750 
Q 2619 4750 2861 4703 
Q 3103 4656 3366 4563 
z
" transform="scale(0.015625)"/>
       </defs>
       <use xlink:href="#DejaVuSans-36"/>
       <use xlink:href="#DejaVuSans-30" transform="translate(63.623047 0)"/>
       <use xlink:href="#DejaVuSans-30" transform="translate(127.246094 0)"/>
      </g>
     </g>
    </g>
    <g id="ytick_8">
     <g id="line2d_15">
      <path d="M 72 48.635294 
L 518.4 48.635294 
" clip-path="url(#pe5aa9acad4)" style="fill: none; stroke: #cccccc; stroke-linecap: round"/>
     </g>
     <g id="text_16">
      <!-- 700 -->
      <g style="fill: #262626" transform="translate(41.50375 52.814435) scale(0.11 -0.11)">
       <use xlink:href="#DejaVuSans-37"/>
       <use xlink:href="#DejaVuSans-30" transform="translate(63.623047 0)"/>
       <use xlink:href="#DejaVuSans-30" transform="translate(127.246094 0)"/>
      </g>
     </g>
    </g>
    <g id="text_17">
     <!-- Count -->
     <g style="fill: #262626" transform="translate(35.008125 199.618125) rotate(-90) scale(0.12 -0.12)">
      <defs>
       <path id="DejaVuSans-43" d="M 4122 4306 
L 4122 3641 
Q 3803 3938 3442 4084 
Q 3081 4231 2675 4231 
Q 1875 4231 1450 3742 
Q 1025 3253 1025 2328 
Q 1025 1406 1450 917 
Q 1875 428 2675 428 
Q 3081 428 3442 575 
Q 3803 722 4122 1019 
L 4122 359 
Q 3791 134 3420 21 
Q 3050 -91 2638 -91 
Q 1578 -91 968 557 
Q 359 1206 359 2328 
Q 359 3453 968 4101 
Q 1578 4750 2638 4750 
Q 3056 4750 3426 4639 
Q 3797 4528 4122 4306 
z
" transform="scale(0.015625)"/>
       <path id="DejaVuSans-75" d="M 544 1381 
L 544 3500 
L 1119 3500 
L 1119 1403 
Q 1119 906 1312 657 
Q 1506 409 1894 409 
Q 2359 409 2629 706 
Q 2900 1003 2900 1516 
L 2900 3500 
L 3475 3500 
L 3475 0 
L 2900 0 
L 2900 538 
Q 2691 219 2414 64 
Q 2138 -91 1772 -91 
Q 1169 -91 856 284 
Q 544 659 544 1381 
z
M 1991 3584 
L 1991 3584 
z
" transform="scale(0.015625)"/>
      </defs>
      <use xlink:href="#DejaVuSans-43"/>
      <use xlink:href="#DejaVuSans-6f" transform="translate(69.824219 0)"/>
      <use xlink:href="#DejaVuSans-75" transform="translate(131.005859 0)"/>
      <use xlink:href="#DejaVuSans-6e" transform="translate(194.384766 0)"/>
      <use xlink:href="#DejaVuSans-74" transform="translate(257.763672 0)"/>
     </g>
    </g>
   </g>
   <g id="patch_3">
    <path d="M 92.290909 320.4 
L 112.581818 320.4 
L 112.581818 320.011765 
L 92.290909 320.011765 
z
" clip-path="url(#pe5aa9acad4)" style="fill: #dd8452; fill-opacity: 0.5; stroke: #ffffff; stroke-linejoin: miter"/>
   </g>
   <g id="patch_4">
    <path d="M 112.581818 320.4 
L 132.872727 320.4 
L 132.872727 320.011765 
L 112.581818 320.011765 
z
" clip-path="url(#pe5aa9acad4)" style="fill: #dd8452; fill-opacity: 0.5; stroke: #ffffff; stroke-linejoin: miter"/>
   </g>
   <g id="patch_5">
    <path d="M 132.872727 320.4 
L 153.163636 320.4 
L 153.163636 318.847059 
L 132.872727 318.847059 
z
" clip-path="url(#pe5aa9acad4)" style="fill: #dd8452; fill-opacity: 0.5; stroke: #ffffff; stroke-linejoin: miter"/>
   </g>
   <g id="patch_6">
    <path d="M 153.163636 320.4 
L 173.454545 320.4 
L 173.454545 318.070588 
L 153.163636 318.070588 
z
" clip-path="url(#pe5aa9acad4)" style="fill: #dd8452; fill-opacity: 0.5; stroke: #ffffff; stroke-linejoin: miter"/>
   </g>
   <g id="patch_7">
    <path d="M 173.454545 320.4 
L 193.745455 320.4 
L 193.745455 316.517647 
L 173.454545 316.517647 
z
" clip-path="url(#pe5aa9acad4)" style="fill: #dd8452; fill-opacity: 0.5; stroke: #ffffff; stroke-linejoin: miter"/>
   </g>
   <g id="patch_8">
    <path d="M 193.745455 320.4 
L 214.036364 320.4 
L 214.036364 315.741176 
L 193.745455 315.741176 
z
" clip-path="url(#pe5aa9acad4)" style="fill: #dd8452; fill-opacity: 0.5; stroke: #ffffff; stroke-linejoin: miter"/>
   </g>
   <g id="patch_9">
    <path d="M 214.036364 320.4 
L 234.327273 320.4 
L 234.327273 316.129412 
L 214.036364 316.129412 
z
" clip-path="url(#pe5aa9acad4)" style="fill: #dd8452; fill-opacity: 0.5; stroke: #ffffff; stroke-linejoin: miter"/>
   </g>
   <g id="patch_10">
    <path d="M 234.327273 320.4 
L 254.618182 320.4 
L 254.618182 317.682353 
L 234.327273 317.682353 
z
" clip-path="url(#pe5aa9acad4)" style="fill: #dd8452; fill-opacity: 0.5; stroke: #ffffff; stroke-linejoin: miter"/>
   </g>
   <g id="patch_11">
    <path d="M 254.618182 320.4 
L 274.909091 320.4 
L 274.909091 313.411765 
L 254.618182 313.411765 
z
" clip-path="url(#pe5aa9acad4)" style="fill: #dd8452; fill-opacity: 0.5; stroke: #ffffff; stroke-linejoin: miter"/>
   </g>
   <g id="patch_12">
    <path d="M 274.909091 320.4 
L 295.2 320.4 
L 295.2 316.905882 
L 274.909091 316.905882 
z
" clip-path="url(#pe5aa9acad4)" style="fill: #dd8452; fill-opacity: 0.5; stroke: #ffffff; stroke-linejoin: miter"/>
   </g>
   <g id="patch_13">
    <path d="M 295.2 320.4 
L 315.490909 320.4 
L 315.490909 320.4 
L 295.2 320.4 
z
" clip-path="url(#pe5aa9acad4)" style="fill: #dd8452; fill-opacity: 0.5; stroke: #ffffff; stroke-linejoin: miter"/>
   </g>
   <g id="patch_14">
    <path d="M 315.490909 320.4 
L 335.781818 320.4 
L 335.781818 311.858824 
L 315.490909 311.858824 
z
" clip-path="url(#pe5aa9acad4)" style="fill: #dd8452; fill-opacity: 0.5; stroke: #ffffff; stroke-linejoin: miter"/>
   </g>
   <g id="patch_15">
    <path d="M 335.781818 320.4 
L 356.072727 320.4 
L 356.072727 313.411765 
L 335.781818 313.411765 
z
" clip-path="url(#pe5aa9acad4)" style="fill: #dd8452; fill-opacity: 0.5; stroke: #ffffff; stroke-linejoin: miter"/>
   </g>
   <g id="patch_16">
    <path d="M 356.072727 320.4 
L 376.363636 320.4 
L 376.363636 306.423529 
L 356.072727 306.423529 
z
" clip-path="url(#pe5aa9acad4)" style="fill: #dd8452; fill-opacity: 0.5; stroke: #ffffff; stroke-linejoin: miter"/>
   </g>
   <g id="patch_17">
    <path d="M 376.363636 320.4 
L 396.654545 320.4 
L 396.654545 307.976471 
L 376.363636 307.976471 
z
" clip-path="url(#pe5aa9acad4)" style="fill: #dd8452; fill-opacity: 0.5; stroke: #ffffff; stroke-linejoin: miter"/>
   </g>
   <g id="patch_18">
    <path d="M 396.654545 320.4 
L 416.945455 320.4 
L 416.945455 294.388235 
L 396.654545 294.388235 
z
" clip-path="url(#pe5aa9acad4)" style="fill: #dd8452; fill-opacity: 0.5; stroke: #ffffff; stroke-linejoin: miter"/>
   </g>
   <g id="patch_19">
    <path d="M 416.945455 320.4 
L 437.236364 320.4 
L 437.236364 294.388235 
L 416.945455 294.388235 
z
" clip-path="url(#pe5aa9acad4)" style="fill: #dd8452; fill-opacity: 0.5; stroke: #ffffff; stroke-linejoin: miter"/>
   </g>
   <g id="patch_20">
    <path d="M 437.236364 320.4 
L 457.527273 320.4 
L 457.527273 255.176471 
L 437.236364 255.176471 
z
" clip-path="url(#pe5aa9acad4)" style="fill: #dd8452; fill-opacity: 0.5; stroke: #ffffff; stroke-linejoin: miter"/>
   </g>
   <g id="patch_21">
    <path d="M 457.527273 320.4 
L 477.818182 320.4 
L 477.818182 293.223529 
L 457.527273 293.223529 
z
" clip-path="url(#pe5aa9acad4)" style="fill: #dd8452; fill-opacity: 0.5; stroke: #ffffff; stroke-linejoin: miter"/>
   </g>
   <g id="patch_22">
    <path d="M 477.818182 320.4 
L 498.109091 320.4 
L 498.109091 141.811765 
L 477.818182 141.811765 
z
" clip-path="url(#pe5aa9acad4)" style="fill: #dd8452; fill-opacity: 0.5; stroke: #ffffff; stroke-linejoin: miter"/>
   </g>
   <g id="patch_23">
    <path d="M 92.290909 320.4 
L 112.581818 320.4 
L 112.581818 320.4 
L 92.290909 320.4 
z
" clip-path="url(#pe5aa9acad4)" style="fill: #4c72b0; fill-opacity: 0.5; stroke: #ffffff; stroke-linejoin: miter"/>
   </g>
   <g id="patch_24">
    <path d="M 112.581818 320.4 
L 132.872727 320.4 
L 132.872727 319.623529 
L 112.581818 319.623529 
z
" clip-path="url(#pe5aa9acad4)" style="fill: #4c72b0; fill-opacity: 0.5; stroke: #ffffff; stroke-linejoin: miter"/>
   </g>
   <g id="patch_25">
    <path d="M 132.872727 320.4 
L 153.163636 320.4 
L 153.163636 319.235294 
L 132.872727 319.235294 
z
" clip-path="url(#pe5aa9acad4)" style="fill: #4c72b0; fill-opacity: 0.5; stroke: #ffffff; stroke-linejoin: miter"/>
   </g>
   <g id="patch_26">
    <path d="M 153.163636 320.4 
L 173.454545 320.4 
L 173.454545 320.4 
L 153.163636 320.4 
z
" clip-path="url(#pe5aa9acad4)" style="fill: #4c72b0; fill-opacity: 0.5; stroke: #ffffff; stroke-linejoin: miter"/>
   </g>
   <g id="patch_27">
    <path d="M 173.454545 320.4 
L 193.745455 320.4 
L 193.745455 319.623529 
L 173.454545 319.623529 
z
" clip-path="url(#pe5aa9acad4)" style="fill: #4c72b0; fill-opacity: 0.5; stroke: #ffffff; stroke-linejoin: miter"/>
   </g>
   <g id="patch_28">
    <path d="M 193.745455 320.4 
L 214.036364 320.4 
L 214.036364 320.4 
L 193.745455 320.4 
z
" clip-path="url(#pe5aa9acad4)" style="fill: #4c72b0; fill-opacity: 0.5; stroke: #ffffff; stroke-linejoin: miter"/>
   </g>
   <g id="patch_29">
    <path d="M 214.036364 320.4 
L 234.327273 320.4 
L 234.327273 320.011765 
L 214.036364 320.011765 
z
" clip-path="url(#pe5aa9acad4)" style="fill: #4c72b0; fill-opacity: 0.5; stroke: #ffffff; stroke-linejoin: miter"/>
   </g>
   <g id="patch_30">
    <path d="M 234.327273 320.4 
L 254.618182 320.4 
L 254.618182 320.4 
L 234.327273 320.4 
z
" clip-path="url(#pe5aa9acad4)" style="fill: #4c72b0; fill-opacity: 0.5; stroke: #ffffff; stroke-linejoin: miter"/>
   </g>
   <g id="patch_31">
    <path d="M 254.618182 320.4 
L 274.909091 320.4 
L 274.909091 320.4 
L 254.618182 320.4 
z
" clip-path="url(#pe5aa9acad4)" style="fill: #4c72b0; fill-opacity: 0.5; stroke: #ffffff; stroke-linejoin: miter"/>
   </g>
   <g id="patch_32">
    <path d="M 274.909091 320.4 
L 295.2 320.4 
L 295.2 319.235294 
L 274.909091 319.235294 
z
" clip-path="url(#pe5aa9acad4)" style="fill: #4c72b0; fill-opacity: 0.5; stroke: #ffffff; stroke-linejoin: miter"/>
   </g>
   <g id="patch_33">
    <path d="M 295.2 320.4 
L 315.490909 320.4 
L 315.490909 320.011765 
L 295.2 320.011765 
z
" clip-path="url(#pe5aa9acad4)" style="fill: #4c72b0; fill-opacity: 0.5; stroke: #ffffff; stroke-linejoin: miter"/>
   </g>
   <g id="patch_34">
    <path d="M 315.490909 320.4 
L 335.781818 320.4 
L 335.781818 320.011765 
L 315.490909 320.011765 
z
" clip-path="url(#pe5aa9acad4)" style="fill: #4c72b0; fill-opacity: 0.5; stroke: #ffffff; stroke-linejoin: miter"/>
   </g>
   <g id="patch_35">
    <path d="M 335.781818 320.4 
L 356.072727 320.4 
L 356.072727 318.070588 
L 335.781818 318.070588 
z
" clip-path="url(#pe5aa9acad4)" style="fill: #4c72b0; fill-opacity: 0.5; stroke: #ffffff; stroke-linejoin: miter"/>
   </g>
   <g id="patch_36">
    <path d="M 356.072727 320.4 
L 376.363636 320.4 
L 376.363636 314.576471 
L 356.072727 314.576471 
z
" clip-path="url(#pe5aa9acad4)" style="fill: #4c72b0; fill-opacity: 0.5; stroke: #ffffff; stroke-linejoin: miter"/>
   </g>
   <g id="patch_37">
    <path d="M 376.363636 320.4 
L 396.654545 320.4 
L 396.654545 315.741176 
L 376.363636 315.741176 
z
" clip-path="url(#pe5aa9acad4)" style="fill: #4c72b0; fill-opacity: 0.5; stroke: #ffffff; stroke-linejoin: miter"/>
   </g>
   <g id="patch_38">
    <path d="M 396.654545 320.4 
L 416.945455 320.4 
L 416.945455 300.988235 
L 396.654545 300.988235 
z
" clip-path="url(#pe5aa9acad4)" style="fill: #4c72b0; fill-opacity: 0.5; stroke: #ffffff; stroke-linejoin: miter"/>
   </g>
   <g id="patch_39">
    <path d="M 416.945455 320.4 
L 437.236364 320.4 
L 437.236364 301.764706 
L 416.945455 301.764706 
z
" clip-path="url(#pe5aa9acad4)" style="fill: #4c72b0; fill-opacity: 0.5; stroke: #ffffff; stroke-linejoin: miter"/>
   </g>
   <g id="patch_40">
    <path d="M 437.236364 320.4 
L 457.527273 320.4 
L 457.527273 256.729412 
L 437.236364 256.729412 
z
" clip-path="url(#pe5aa9acad4)" style="fill: #4c72b0; fill-opacity: 0.5; stroke: #ffffff; stroke-linejoin: miter"/>
   </g>
   <g id="patch_41">
    <path d="M 457.527273 320.4 
L 477.818182 320.4 
L 477.818182 287.011765 
L 457.527273 287.011765 
z
" clip-path="url(#pe5aa9acad4)" style="fill: #4c72b0; fill-opacity: 0.5; stroke: #ffffff; stroke-linejoin: miter"/>
   </g>
   <g id="patch_42">
    <path d="M 477.818182 320.4 
L 498.109091 320.4 
L 498.109091 56.4 
L 477.818182 56.4 
z
" clip-path="url(#pe5aa9acad4)" style="fill: #4c72b0; fill-opacity: 0.5; stroke: #ffffff; stroke-linejoin: miter"/>
   </g>
   <g id="line2d_16">
    <path d="M 92.290909 320.10785 
L 114.72307 319.752627 
L 133.076656 319.203902 
L 157.548104 318.230589 
L 192.215989 316.812197 
L 204.451713 316.592709 
L 216.687437 316.604974 
L 243.198173 316.770829 
L 253.394609 316.507253 
L 277.866058 315.69973 
L 296.219644 315.293151 
L 306.41608 314.768605 
L 326.808954 313.363362 
L 337.005391 312.522675 
L 347.201827 311.435553 
L 361.476839 309.622959 
L 373.712563 307.889745 
L 379.830425 306.827473 
L 385.948287 305.541488 
L 392.066149 304.009955 
L 398.184011 302.257988 
L 404.301873 300.319204 
L 410.419735 298.182609 
L 416.537597 295.770038 
L 420.616172 293.955355 
L 424.694746 291.952207 
L 430.812608 288.62219 
L 449.166195 278.171432 
L 455.284057 274.817445 
L 459.362631 272.30879 
L 461.401919 270.888466 
L 463.441206 269.320378 
L 465.480493 267.581791 
L 467.519781 265.657278 
L 469.559068 263.541308 
L 473.637643 258.77523 
L 479.755505 250.818152 
L 483.834079 245.707871 
L 485.873367 243.462402 
L 487.912654 241.545576 
L 489.951942 240.045962 
L 491.991229 239.044042 
L 494.030516 238.607767 
L 496.069804 238.78868 
L 498.109091 239.618869 
L 498.109091 239.618869 
" clip-path="url(#pe5aa9acad4)" style="fill: none; stroke: #dd8452; stroke-width: 1.5; stroke-linecap: round"/>
   </g>
   <g id="line2d_17">
    <path d="M 92.290909 320.32843 
L 102.487346 320.089315 
L 116.762357 319.69045 
L 137.155231 319.473946 
L 143.273093 319.638724 
L 157.548104 320.192623 
L 165.705254 320.187433 
L 186.098127 319.861528 
L 212.608862 320.272058 
L 230.962449 320.129126 
L 265.630333 320.367183 
L 273.787483 320.224973 
L 281.944632 319.844022 
L 292.141069 319.287219 
L 298.258931 319.245361 
L 306.41608 319.536387 
L 314.57323 319.767043 
L 320.691092 319.68755 
L 326.808954 319.344979 
L 337.005391 318.426525 
L 347.201827 317.410344 
L 355.358977 316.248455 
L 359.437551 315.736067 
L 363.516126 315.471997 
L 367.594701 315.480386 
L 375.75185 315.692507 
L 379.830425 315.515314 
L 383.909 314.976384 
L 385.948287 314.534149 
L 387.987574 313.952508 
L 390.026862 313.214623 
L 392.066149 312.311964 
L 394.105436 311.25175 
L 398.184011 308.798273 
L 402.262586 306.343136 
L 404.301873 305.315474 
L 406.34116 304.50788 
L 408.380448 303.948412 
L 410.419735 303.62609 
L 412.459022 303.492347 
L 418.576884 303.407832 
L 420.616172 303.209904 
L 422.655459 302.827941 
L 424.694746 302.230267 
L 426.734034 301.3929 
L 428.773321 300.287076 
L 430.812608 298.870234 
L 432.851896 297.085776 
L 434.891183 294.874434 
L 436.930471 292.196225 
L 438.969758 289.057804 
L 443.048333 281.795673 
L 445.08762 278.073442 
L 447.126907 274.660684 
L 449.166195 271.853546 
L 451.205482 269.900517 
L 453.244769 268.952729 
L 455.284057 269.030113 
L 457.323344 270.011576 
L 459.362631 271.650792 
L 463.441206 275.514061 
L 465.480493 276.971303 
L 467.519781 277.617778 
L 469.559068 277.113495 
L 471.598355 275.135056 
L 473.637643 271.362866 
L 475.67693 265.480372 
L 477.716217 257.199408 
L 479.755505 246.318326 
L 481.794792 232.807954 
L 483.834079 216.907609 
L 487.912654 180.660084 
L 489.951942 162.577931 
L 491.991229 146.473939 
L 494.030516 133.891703 
L 496.069804 126.176983 
L 498.109091 124.263025 
L 498.109091 124.263025 
" clip-path="url(#pe5aa9acad4)" style="fill: none; stroke: #4c72b0; stroke-width: 1.5; stroke-linecap: round"/>
   </g>
   <g id="patch_43">
    <path d="M 72 320.4 
L 72 43.2 
" style="fill: none; stroke: #cccccc; stroke-width: 1.25; stroke-linejoin: miter; stroke-linecap: square"/>
   </g>
   <g id="patch_44">
    <path d="M 518.4 320.4 
L 518.4 43.2 
" style="fill: none; stroke: #cccccc; stroke-width: 1.25; stroke-linejoin: miter; stroke-linecap: square"/>
   </g>
   <g id="patch_45">
    <path d="M 72 320.4 
L 518.4 320.4 
" style="fill: none; stroke: #cccccc; stroke-width: 1.25; stroke-linejoin: miter; stroke-linecap: square"/>
   </g>
   <g id="patch_46">
    <path d="M 72 43.2 
L 518.4 43.2 
" style="fill: none; stroke: #cccccc; stroke-width: 1.25; stroke-linejoin: miter; stroke-linecap: square"/>
   </g>
   <g id="text_18">
    <!-- Mean identity score per site 50 nt context &gt; 0.97 in 12 species, chloroplasts -->
    <g style="fill: #262626" transform="translate(65.834062 37.2) scale(0.12 -0.12)">
     <defs>
      <path id="DejaVuSans-4d" d="M 628 4666 
L 1569 4666 
L 2759 1491 
L 3956 4666 
L 4897 4666 
L 4897 0 
L 4281 0 
L 4281 4097 
L 3078 897 
L 2444 897 
L 1241 4097 
L 1241 0 
L 628 0 
L 628 4666 
z
" transform="scale(0.015625)"/>
      <path id="DejaVuSans-61" d="M 2194 1759 
Q 1497 1759 1228 1600 
Q 959 1441 959 1056 
Q 959 750 1161 570 
Q 1363 391 1709 391 
Q 2188 391 2477 730 
Q 2766 1069 2766 1631 
L 2766 1759 
L 2194 1759 
z
M 3341 1997 
L 3341 0 
L 2766 0 
L 2766 531 
Q 2569 213 2275 61 
Q 1981 -91 1556 -91 
Q 1019 -91 701 211 
Q 384 513 384 1019 
Q 384 1609 779 1909 
Q 1175 2209 1959 2209 
L 2766 2209 
L 2766 2266 
Q 2766 2663 2505 2880 
Q 2244 3097 1772 3097 
Q 1472 3097 1187 3025 
Q 903 2953 641 2809 
L 641 3341 
Q 956 3463 1253 3523 
Q 1550 3584 1831 3584 
Q 2591 3584 2966 3190 
Q 3341 2797 3341 1997 
z
" transform="scale(0.015625)"/>
      <path id="DejaVuSans-70" d="M 1159 525 
L 1159 -1331 
L 581 -1331 
L 581 3500 
L 1159 3500 
L 1159 2969 
Q 1341 3281 1617 3432 
Q 1894 3584 2278 3584 
Q 2916 3584 3314 3078 
Q 3713 2572 3713 1747 
Q 3713 922 3314 415 
Q 2916 -91 2278 -91 
Q 1894 -91 1617 61 
Q 1341 213 1159 525 
z
M 3116 1747 
Q 3116 2381 2855 2742 
Q 2594 3103 2138 3103 
Q 1681 3103 1420 2742 
Q 1159 2381 1159 1747 
Q 1159 1113 1420 752 
Q 1681 391 2138 391 
Q 2594 391 2855 752 
Q 3116 1113 3116 1747 
z
" transform="scale(0.015625)"/>
      <path id="DejaVuSans-78" d="M 3513 3500 
L 2247 1797 
L 3578 0 
L 2900 0 
L 1881 1375 
L 863 0 
L 184 0 
L 1544 1831 
L 300 3500 
L 978 3500 
L 1906 2253 
L 2834 3500 
L 3513 3500 
z
" transform="scale(0.015625)"/>
      <path id="DejaVuSans-3e" d="M 678 3150 
L 678 3719 
L 4684 2266 
L 4684 1747 
L 678 294 
L 678 863 
L 3897 2003 
L 678 3150 
z
" transform="scale(0.015625)"/>
      <path id="DejaVuSans-2c" d="M 750 794 
L 1409 794 
L 1409 256 
L 897 -744 
L 494 -744 
L 750 256 
L 750 794 
z
" transform="scale(0.015625)"/>
      <path id="DejaVuSans-68" d="M 3513 2113 
L 3513 0 
L 2938 0 
L 2938 2094 
Q 2938 2591 2744 2837 
Q 2550 3084 2163 3084 
Q 1697 3084 1428 2787 
Q 1159 2491 1159 1978 
L 1159 0 
L 581 0 
L 581 4863 
L 1159 4863 
L 1159 2956 
Q 1366 3272 1645 3428 
Q 1925 3584 2291 3584 
Q 2894 3584 3203 3211 
Q 3513 2838 3513 2113 
z
" transform="scale(0.015625)"/>
      <path id="DejaVuSans-6c" d="M 603 4863 
L 1178 4863 
L 1178 0 
L 603 0 
L 603 4863 
z
" transform="scale(0.015625)"/>
     </defs>
     <use xlink:href="#DejaVuSans-4d"/>
     <use xlink:href="#DejaVuSans-65" transform="translate(86.279297 0)"/>
     <use xlink:href="#DejaVuSans-61" transform="translate(147.802734 0)"/>
     <use xlink:href="#DejaVuSans-6e" transform="translate(209.082031 0)"/>
     <use xlink:href="#DejaVuSans-20" transform="translate(272.460938 0)"/>
     <use xlink:href="#DejaVuSans-69" transform="translate(304.248047 0)"/>
     <use xlink:href="#DejaVuSans-64" transform="translate(332.03125 0)"/>
     <use xlink:href="#DejaVuSans-65" transform="translate(395.507812 0)"/>
     <use xlink:href="#DejaVuSans-6e" transform="translate(457.03125 0)"/>
     <use xlink:href="#DejaVuSans-74" transform="translate(520.410156 0)"/>
     <use xlink:href="#DejaVuSans-69" transform="translate(559.619141 0)"/>
     <use xlink:href="#DejaVuSans-74" transform="translate(587.402344 0)"/>
     <use xlink:href="#DejaVuSans-79" transform="translate(626.611328 0)"/>
     <use xlink:href="#DejaVuSans-20" transform="translate(685.791016 0)"/>
     <use xlink:href="#DejaVuSans-73" transform="translate(717.578125 0)"/>
     <use xlink:href="#DejaVuSans-63" transform="translate(769.677734 0)"/>
     <use xlink:href="#DejaVuSans-6f" transform="translate(824.658203 0)"/>
     <use xlink:href="#DejaVuSans-72" transform="translate(885.839844 0)"/>
     <use xlink:href="#DejaVuSans-65" transform="translate(924.703125 0)"/>
     <use xlink:href="#DejaVuSans-20" transform="translate(986.226562 0)"/>
     <use xlink:href="#DejaVuSans-70" transform="translate(1018.013672 0)"/>
     <use xlink:href="#DejaVuSans-65" transform="translate(1081.490234 0)"/>
     <use xlink:href="#DejaVuSans-72" transform="translate(1143.013672 0)"/>
     <use xlink:href="#DejaVuSans-20" transform="translate(1184.126953 0)"/>
     <use xlink:href="#DejaVuSans-73" transform="translate(1215.914062 0)"/>
     <use xlink:href="#DejaVuSans-69" transform="translate(1268.013672 0)"/>
     <use xlink:href="#DejaVuSans-74" transform="translate(1295.796875 0)"/>
     <use xlink:href="#DejaVuSans-65" transform="translate(1335.005859 0)"/>
     <use xlink:href="#DejaVuSans-20" transform="translate(1396.529297 0)"/>
     <use xlink:href="#DejaVuSans-35" transform="translate(1428.316406 0)"/>
     <use xlink:href="#DejaVuSans-30" transform="translate(1491.939453 0)"/>
     <use xlink:href="#DejaVuSans-20" transform="translate(1555.5625 0)"/>
     <use xlink:href="#DejaVuSans-6e" transform="translate(1587.349609 0)"/>
     <use xlink:href="#DejaVuSans-74" transform="translate(1650.728516 0)"/>
     <use xlink:href="#DejaVuSans-20" transform="translate(1689.9375 0)"/>
     <use xlink:href="#DejaVuSans-63" transform="translate(1721.724609 0)"/>
     <use xlink:href="#DejaVuSans-6f" transform="translate(1776.705078 0)"/>
     <use xlink:href="#DejaVuSans-6e" transform="translate(1837.886719 0)"/>
     <use xlink:href="#DejaVuSans-74" transform="translate(1901.265625 0)"/>
     <use xlink:href="#DejaVuSans-65" transform="translate(1940.474609 0)"/>
     <use xlink:href="#DejaVuSans-78" transform="translate(2000.248047 0)"/>
     <use xlink:href="#DejaVuSans-74" transform="translate(2059.427734 0)"/>
     <use xlink:href="#DejaVuSans-20" transform="translate(2098.636719 0)"/>
     <use xlink:href="#DejaVuSans-3e" transform="translate(2130.423828 0)"/>
     <use xlink:href="#DejaVuSans-20" transform="translate(2214.212891 0)"/>
     <use xlink:href="#DejaVuSans-30" transform="translate(2246 0)"/>
     <use xlink:href="#DejaVuSans-2e" transform="translate(2309.623047 0)"/>
     <use xlink:href="#DejaVuSans-39" transform="translate(2341.410156 0)"/>
     <use xlink:href="#DejaVuSans-37" transform="translate(2405.033203 0)"/>
     <use xlink:href="#DejaVuSans-20" transform="translate(2468.65625 0)"/>
     <use xlink:href="#DejaVuSans-69" transform="translate(2500.443359 0)"/>
     <use xlink:href="#DejaVuSans-6e" transform="translate(2528.226562 0)"/>
     <use xlink:href="#DejaVuSans-20" transform="translate(2591.605469 0)"/>
     <use xlink:href="#DejaVuSans-31" transform="translate(2623.392578 0)"/>
     <use xlink:href="#DejaVuSans-32" transform="translate(2687.015625 0)"/>
     <use xlink:href="#DejaVuSans-20" transform="translate(2750.638672 0)"/>
     <use xlink:href="#DejaVuSans-73" transform="translate(2782.425781 0)"/>
     <use xlink:href="#DejaVuSans-70" transform="translate(2834.525391 0)"/>
     <use xlink:href="#DejaVuSans-65" transform="translate(2898.001953 0)"/>
     <use xlink:href="#DejaVuSans-63" transform="translate(2959.525391 0)"/>
     <use xlink:href="#DejaVuSans-69" transform="translate(3014.505859 0)"/>
     <use xlink:href="#DejaVuSans-65" transform="translate(3042.289062 0)"/>
     <use xlink:href="#DejaVuSans-73" transform="translate(3103.8125 0)"/>
     <use xlink:href="#DejaVuSans-2c" transform="translate(3155.912109 0)"/>
     <use xlink:href="#DejaVuSans-20" transform="translate(3187.699219 0)"/>
     <use xlink:href="#DejaVuSans-63" transform="translate(3219.486328 0)"/>
     <use xlink:href="#DejaVuSans-68" transform="translate(3274.466797 0)"/>
     <use xlink:href="#DejaVuSans-6c" transform="translate(3337.845703 0)"/>
     <use xlink:href="#DejaVuSans-6f" transform="translate(3365.628906 0)"/>
     <use xlink:href="#DejaVuSans-72" transform="translate(3426.810547 0)"/>
     <use xlink:href="#DejaVuSans-6f" transform="translate(3465.673828 0)"/>
     <use xlink:href="#DejaVuSans-70" transform="translate(3526.855469 0)"/>
     <use xlink:href="#DejaVuSans-6c" transform="translate(3590.332031 0)"/>
     <use xlink:href="#DejaVuSans-61" transform="translate(3618.115234 0)"/>
     <use xlink:href="#DejaVuSans-73" transform="translate(3679.394531 0)"/>
     <use xlink:href="#DejaVuSans-74" transform="translate(3731.494141 0)"/>
     <use xlink:href="#DejaVuSans-73" transform="translate(3770.703125 0)"/>
    </g>
   </g>
   <g id="legend_1">
    <g id="patch_47">
     <path d="M 79.7 101.405625 
L 160.436563 101.405625 
Q 162.636563 101.405625 162.636563 99.205625 
L 162.636563 50.9 
Q 162.636563 48.7 160.436563 48.7 
L 79.7 48.7 
Q 77.5 48.7 77.5 50.9 
L 77.5 99.205625 
Q 77.5 101.405625 79.7 101.405625 
z
" style="fill: #ffffff; opacity: 0.8; stroke: #cccccc; stroke-linejoin: miter"/>
    </g>
    <g id="text_19">
     <!-- type -->
     <g style="fill: #262626" transform="translate(106.663906 62.218125) scale(0.12 -0.12)">
      <use xlink:href="#DejaVuSans-74"/>
      <use xlink:href="#DejaVuSans-79" transform="translate(39.208984 0)"/>
      <use xlink:href="#DejaVuSans-70" transform="translate(98.388672 0)"/>
      <use xlink:href="#DejaVuSans-65" transform="translate(161.865234 0)"/>
     </g>
    </g>
    <g id="patch_48">
     <path d="M 81.9 78.572031 
L 103.9 78.572031 
L 103.9 70.872031 
L 81.9 70.872031 
z
" style="fill: #4c72b0; fill-opacity: 0.5; stroke: #ffffff; stroke-linejoin: miter"/>
    </g>
    <g id="text_20">
     <!-- GCS -->
     <g style="fill: #262626" transform="translate(112.7 78.572031) scale(0.11 -0.11)">
      <defs>
       <path id="DejaVuSans-47" d="M 3809 666 
L 3809 1919 
L 2778 1919 
L 2778 2438 
L 4434 2438 
L 4434 434 
Q 4069 175 3628 42 
Q 3188 -91 2688 -91 
Q 1594 -91 976 548 
Q 359 1188 359 2328 
Q 359 3472 976 4111 
Q 1594 4750 2688 4750 
Q 3144 4750 3555 4637 
Q 3966 4525 4313 4306 
L 4313 3634 
Q 3963 3931 3569 4081 
Q 3175 4231 2741 4231 
Q 1884 4231 1454 3753 
Q 1025 3275 1025 2328 
Q 1025 1384 1454 906 
Q 1884 428 2741 428 
Q 3075 428 3337 486 
Q 3600 544 3809 666 
z
" transform="scale(0.015625)"/>
       <path id="DejaVuSans-53" d="M 3425 4513 
L 3425 3897 
Q 3066 4069 2747 4153 
Q 2428 4238 2131 4238 
Q 1616 4238 1336 4038 
Q 1056 3838 1056 3469 
Q 1056 3159 1242 3001 
Q 1428 2844 1947 2747 
L 2328 2669 
Q 3034 2534 3370 2195 
Q 3706 1856 3706 1288 
Q 3706 609 3251 259 
Q 2797 -91 1919 -91 
Q 1588 -91 1214 -16 
Q 841 59 441 206 
L 441 856 
Q 825 641 1194 531 
Q 1563 422 1919 422 
Q 2459 422 2753 634 
Q 3047 847 3047 1241 
Q 3047 1584 2836 1778 
Q 2625 1972 2144 2069 
L 1759 2144 
Q 1053 2284 737 2584 
Q 422 2884 422 3419 
Q 422 4038 858 4394 
Q 1294 4750 2059 4750 
Q 2388 4750 2728 4690 
Q 3069 4631 3425 4513 
z
" transform="scale(0.015625)"/>
      </defs>
      <use xlink:href="#DejaVuSans-47"/>
      <use xlink:href="#DejaVuSans-43" transform="translate(77.490234 0)"/>
      <use xlink:href="#DejaVuSans-53" transform="translate(147.314453 0)"/>
     </g>
    </g>
    <g id="patch_49">
     <path d="M 81.9 94.717969 
L 103.9 94.717969 
L 103.9 87.017969 
L 81.9 87.017969 
z
" style="fill: #dd8452; fill-opacity: 0.5; stroke: #ffffff; stroke-linejoin: miter"/>
    </g>
    <g id="text_21">
     <!-- Random -->
     <g style="fill: #262626" transform="translate(112.7 94.717969) scale(0.11 -0.11)">
      <defs>
       <path id="DejaVuSans-52" d="M 2841 2188 
Q 3044 2119 3236 1894 
Q 3428 1669 3622 1275 
L 4263 0 
L 3584 0 
L 2988 1197 
Q 2756 1666 2539 1819 
Q 2322 1972 1947 1972 
L 1259 1972 
L 1259 0 
L 628 0 
L 628 4666 
L 2053 4666 
Q 2853 4666 3247 4331 
Q 3641 3997 3641 3322 
Q 3641 2881 3436 2590 
Q 3231 2300 2841 2188 
z
M 1259 4147 
L 1259 2491 
L 2053 2491 
Q 2509 2491 2742 2702 
Q 2975 2913 2975 3322 
Q 2975 3731 2742 3939 
Q 2509 4147 2053 4147 
L 1259 4147 
z
" transform="scale(0.015625)"/>
       <path id="DejaVuSans-6d" d="M 3328 2828 
Q 3544 3216 3844 3400 
Q 4144 3584 4550 3584 
Q 5097 3584 5394 3201 
Q 5691 2819 5691 2113 
L 5691 0 
L 5113 0 
L 5113 2094 
Q 5113 2597 4934 2840 
Q 4756 3084 4391 3084 
Q 3944 3084 3684 2787 
Q 3425 2491 3425 1978 
L 3425 0 
L 2847 0 
L 2847 2094 
Q 2847 2600 2669 2842 
Q 2491 3084 2119 3084 
Q 1678 3084 1418 2786 
Q 1159 2488 1159 1978 
L 1159 0 
L 581 0 
L 581 3500 
L 1159 3500 
L 1159 2956 
Q 1356 3278 1631 3431 
Q 1906 3584 2284 3584 
Q 2666 3584 2933 3390 
Q 3200 3197 3328 2828 
z
" transform="scale(0.015625)"/>
      </defs>
      <use xlink:href="#DejaVuSans-52"/>
      <use xlink:href="#DejaVuSans-61" transform="translate(67.232422 0)"/>
      <use xlink:href="#DejaVuSans-6e" transform="translate(128.511719 0)"/>
      <use xlink:href="#DejaVuSans-64" transform="translate(191.890625 0)"/>
      <use xlink:href="#DejaVuSans-6f" transform="translate(255.367188 0)"/>
      <use xlink:href="#DejaVuSans-6d" transform="translate(316.548828 0)"/>
     </g>
    </g>
   </g>
  </g>
 </g>
 <defs>
  <clipPath id="pe5aa9acad4">
   <rect x="72" y="43.2" width="446.4" height="277.2"/>
  </clipPath>
 </defs>
</svg>
