<?xml version="1.0" encoding="utf-8" standalone="no"?>
<!DOCTYPE svg PUBLIC "-//W3C//DTD SVG 1.1//EN"
  "http://www.w3.org/Graphics/SVG/1.1/DTD/svg11.dtd">
<svg xmlns:xlink="http://www.w3.org/1999/xlink" width="576pt" height="360pt" viewBox="0 0 576 360" xmlns="http://www.w3.org/2000/svg" version="1.1">
 <metadata>
  <rdf:RDF xmlns:dc="http://purl.org/dc/elements/1.1/" xmlns:cc="http://creativecommons.org/ns#" xmlns:rdf="http://www.w3.org/1999/02/22-rdf-syntax-ns#">
   <cc:Work>
    <dc:type rdf:resource="http://purl.org/dc/dcmitype/StillImage"/>
    <dc:date>2024-09-29T10:19:46.790678</dc:date>
    <dc:format>image/svg+xml</dc:format>
    <dc:creator>
     <cc:Agent>
      <dc:title>Matplotlib v3.9.2, https://matplotlib.org/</dc:title>
     </cc:Agent>
    </dc:creator>
   </cc:Work>
  </rdf:RDF>
 </metadata>
 <defs>
  <style type="text/css">*{stroke-linejoin: round; stroke-linecap: butt}</style>
 </defs>
 <g id="figure_1">
  <g id="patch_1">
   <path d="M 0 360 
L 576 360 
L 576 0 
L 0 0 
z
" style="fill: #ffffff"/>
  </g>
  <g id="axes_1">
   <g id="patch_2">
    <path d="M 72 320.4 
L 518.4 320.4 
L 518.4 43.2 
L 72 43.2 
z
" style="fill: #ffffff"/>
   </g>
   <g id="matplotlib.axis_1">
    <g id="xtick_1">
     <g id="line2d_1">
      <path d="M 92.290909 320.4 
L 92.290909 43.2 
" clip-path="url(#p0ad25b2e73)" style="fill: none; stroke: #cccccc; stroke-linecap: round"/>
     </g>
     <g id="text_1">
      <!-- 0.5 -->
      <g style="fill: #262626" transform="translate(83.54419 338.258281) scale(0.11 -0.11)">
       <defs>
        <path id="DejaVuSans-30" d="M 2034 4250 
Q 1547 4250 1301 3770 
Q 1056 3291 1056 2328 
Q 1056 1369 1301 889 
Q 1547 409 2034 409 
Q 2525 409 2770 889 
Q 3016 1369 3016 2328 
Q 3016 3291 2770 3770 
Q 2525 4250 2034 4250 
z
M 2034 4750 
Q 2819 4750 3233 4129 
Q 3647 3509 3647 2328 
Q 3647 1150 3233 529 
Q 2819 -91 2034 -91 
Q 1250 -91 836 529 
Q 422 1150 422 2328 
Q 422 3509 836 4129 
Q 1250 4750 2034 4750 
z
" transform="scale(0.015625)"/>
        <path id="DejaVuSans-2e" d="M 684 794 
L 1344 794 
L 1344 0 
L 684 0 
L 684 794 
z
" transform="scale(0.015625)"/>
        <path id="DejaVuSans-35" d="M 691 4666 
L 3169 4666 
L 3169 4134 
L 1269 4134 
L 1269 2991 
Q 1406 3038 1543 3061 
Q 1681 3084 1819 3084 
Q 2600 3084 3056 2656 
Q 3513 2228 3513 1497 
Q 3513 744 3044 326 
Q 2575 -91 1722 -91 
Q 1428 -91 1123 -41 
Q 819 9 494 109 
L 494 744 
Q 775 591 1075 516 
Q 1375 441 1709 441 
Q 2250 441 2565 725 
Q 2881 1009 2881 1497 
Q 2881 1984 2565 2268 
Q 2250 2553 1709 2553 
Q 1456 2553 1204 2497 
Q 953 2441 691 2322 
L 691 4666 
z
" transform="scale(0.015625)"/>
       </defs>
       <use xlink:href="#DejaVuSans-30"/>
       <use xlink:href="#DejaVuSans-2e" x="63.623047"/>
       <use xlink:href="#DejaVuSans-35" x="95.410156"/>
      </g>
     </g>
    </g>
    <g id="xtick_2">
     <g id="line2d_2">
      <path d="M 173.454545 320.4 
L 173.454545 43.2 
" clip-path="url(#p0ad25b2e73)" style="fill: none; stroke: #cccccc; stroke-linecap: round"/>
     </g>
     <g id="text_2">
      <!-- 0.6 -->
      <g style="fill: #262626" transform="translate(164.707827 338.258281) scale(0.11 -0.11)">
       <defs>
        <path id="DejaVuSans-36" d="M 2113 2584 
Q 1688 2584 1439 2293 
Q 1191 2003 1191 1497 
Q 1191 994 1439 701 
Q 1688 409 2113 409 
Q 2538 409 2786 701 
Q 3034 994 3034 1497 
Q 3034 2003 2786 2293 
Q 2538 2584 2113 2584 
z
M 3366 4563 
L 3366 3988 
Q 3128 4100 2886 4159 
Q 2644 4219 2406 4219 
Q 1781 4219 1451 3797 
Q 1122 3375 1075 2522 
Q 1259 2794 1537 2939 
Q 1816 3084 2150 3084 
Q 2853 3084 3261 2657 
Q 3669 2231 3669 1497 
Q 3669 778 3244 343 
Q 2819 -91 2113 -91 
Q 1303 -91 875 529 
Q 447 1150 447 2328 
Q 447 3434 972 4092 
Q 1497 4750 2381 4750 
Q 2619 4750 2861 4703 
Q 3103 4656 3366 4563 
z
" transform="scale(0.015625)"/>
       </defs>
       <use xlink:href="#DejaVuSans-30"/>
       <use xlink:href="#DejaVuSans-2e" x="63.623047"/>
       <use xlink:href="#DejaVuSans-36" x="95.410156"/>
      </g>
     </g>
    </g>
    <g id="xtick_3">
     <g id="line2d_3">
      <path d="M 254.618182 320.4 
L 254.618182 43.2 
" clip-path="url(#p0ad25b2e73)" style="fill: none; stroke: #cccccc; stroke-linecap: round"/>
     </g>
     <g id="text_3">
      <!-- 0.7 -->
      <g style="fill: #262626" transform="translate(245.871463 338.258281) scale(0.11 -0.11)">
       <defs>
        <path id="DejaVuSans-37" d="M 525 4666 
L 3525 4666 
L 3525 4397 
L 1831 0 
L 1172 0 
L 2766 4134 
L 525 4134 
L 525 4666 
z
" transform="scale(0.015625)"/>
       </defs>
       <use xlink:href="#DejaVuSans-30"/>
       <use xlink:href="#DejaVuSans-2e" x="63.623047"/>
       <use xlink:href="#DejaVuSans-37" x="95.410156"/>
      </g>
     </g>
    </g>
    <g id="xtick_4">
     <g id="line2d_4">
      <path d="M 335.781818 320.4 
L 335.781818 43.2 
" clip-path="url(#p0ad25b2e73)" style="fill: none; stroke: #cccccc; stroke-linecap: round"/>
     </g>
     <g id="text_4">
      <!-- 0.8 -->
      <g style="fill: #262626" transform="translate(327.035099 338.258281) scale(0.11 -0.11)">
       <defs>
        <path id="DejaVuSans-38" d="M 2034 2216 
Q 1584 2216 1326 1975 
Q 1069 1734 1069 1313 
Q 1069 891 1326 650 
Q 1584 409 2034 409 
Q 2484 409 2743 651 
Q 3003 894 3003 1313 
Q 3003 1734 2745 1975 
Q 2488 2216 2034 2216 
z
M 1403 2484 
Q 997 2584 770 2862 
Q 544 3141 544 3541 
Q 544 4100 942 4425 
Q 1341 4750 2034 4750 
Q 2731 4750 3128 4425 
Q 3525 4100 3525 3541 
Q 3525 3141 3298 2862 
Q 3072 2584 2669 2484 
Q 3125 2378 3379 2068 
Q 3634 1759 3634 1313 
Q 3634 634 3220 271 
Q 2806 -91 2034 -91 
Q 1263 -91 848 271 
Q 434 634 434 1313 
Q 434 1759 690 2068 
Q 947 2378 1403 2484 
z
M 1172 3481 
Q 1172 3119 1398 2916 
Q 1625 2713 2034 2713 
Q 2441 2713 2670 2916 
Q 2900 3119 2900 3481 
Q 2900 3844 2670 4047 
Q 2441 4250 2034 4250 
Q 1625 4250 1398 4047 
Q 1172 3844 1172 3481 
z
" transform="scale(0.015625)"/>
       </defs>
       <use xlink:href="#DejaVuSans-30"/>
       <use xlink:href="#DejaVuSans-2e" x="63.623047"/>
       <use xlink:href="#DejaVuSans-38" x="95.410156"/>
      </g>
     </g>
    </g>
    <g id="xtick_5">
     <g id="line2d_5">
      <path d="M 416.945455 320.4 
L 416.945455 43.2 
" clip-path="url(#p0ad25b2e73)" style="fill: none; stroke: #cccccc; stroke-linecap: round"/>
     </g>
     <g id="text_5">
      <!-- 0.9 -->
      <g style="fill: #262626" transform="translate(408.198736 338.258281) scale(0.11 -0.11)">
       <defs>
        <path id="DejaVuSans-39" d="M 703 97 
L 703 672 
Q 941 559 1184 500 
Q 1428 441 1663 441 
Q 2288 441 2617 861 
Q 2947 1281 2994 2138 
Q 2813 1869 2534 1725 
Q 2256 1581 1919 1581 
Q 1219 1581 811 2004 
Q 403 2428 403 3163 
Q 403 3881 828 4315 
Q 1253 4750 1959 4750 
Q 2769 4750 3195 4129 
Q 3622 3509 3622 2328 
Q 3622 1225 3098 567 
Q 2575 -91 1691 -91 
Q 1453 -91 1209 -44 
Q 966 3 703 97 
z
M 1959 2075 
Q 2384 2075 2632 2365 
Q 2881 2656 2881 3163 
Q 2881 3666 2632 3958 
Q 2384 4250 1959 4250 
Q 1534 4250 1286 3958 
Q 1038 3666 1038 3163 
Q 1038 2656 1286 2365 
Q 1534 2075 1959 2075 
z
" transform="scale(0.015625)"/>
       </defs>
       <use xlink:href="#DejaVuSans-30"/>
       <use xlink:href="#DejaVuSans-2e" x="63.623047"/>
       <use xlink:href="#DejaVuSans-39" x="95.410156"/>
      </g>
     </g>
    </g>
    <g id="xtick_6">
     <g id="line2d_6">
      <path d="M 498.109091 320.4 
L 498.109091 43.2 
" clip-path="url(#p0ad25b2e73)" style="fill: none; stroke: #cccccc; stroke-linecap: round"/>
     </g>
     <g id="text_6">
      <!-- 1.0 -->
      <g style="fill: #262626" transform="translate(489.362372 338.258281) scale(0.11 -0.11)">
       <defs>
        <path id="DejaVuSans-31" d="M 794 531 
L 1825 531 
L 1825 4091 
L 703 3866 
L 703 4441 
L 1819 4666 
L 2450 4666 
L 2450 531 
L 3481 531 
L 3481 0 
L 794 0 
L 794 531 
z
" transform="scale(0.015625)"/>
       </defs>
       <use xlink:href="#DejaVuSans-31"/>
       <use xlink:href="#DejaVuSans-2e" x="63.623047"/>
       <use xlink:href="#DejaVuSans-30" x="95.410156"/>
      </g>
     </g>
    </g>
    <g id="text_7">
     <!-- Identity score -->
     <g style="fill: #262626" transform="translate(254.177812 353.664062) scale(0.12 -0.12)">
      <defs>
       <path id="DejaVuSans-49" d="M 628 4666 
L 1259 4666 
L 1259 0 
L 628 0 
L 628 4666 
z
" transform="scale(0.015625)"/>
       <path id="DejaVuSans-64" d="M 2906 2969 
L 2906 4863 
L 3481 4863 
L 3481 0 
L 2906 0 
L 2906 525 
Q 2725 213 2448 61 
Q 2172 -91 1784 -91 
Q 1150 -91 751 415 
Q 353 922 353 1747 
Q 353 2572 751 3078 
Q 1150 3584 1784 3584 
Q 2172 3584 2448 3432 
Q 2725 3281 2906 2969 
z
M 947 1747 
Q 947 1113 1208 752 
Q 1469 391 1925 391 
Q 2381 391 2643 752 
Q 2906 1113 2906 1747 
Q 2906 2381 2643 2742 
Q 2381 3103 1925 3103 
Q 1469 3103 1208 2742 
Q 947 2381 947 1747 
z
" transform="scale(0.015625)"/>
       <path id="DejaVuSans-65" d="M 3597 1894 
L 3597 1613 
L 953 1613 
Q 991 1019 1311 708 
Q 1631 397 2203 397 
Q 2534 397 2845 478 
Q 3156 559 3463 722 
L 3463 178 
Q 3153 47 2828 -22 
Q 2503 -91 2169 -91 
Q 1331 -91 842 396 
Q 353 884 353 1716 
Q 353 2575 817 3079 
Q 1281 3584 2069 3584 
Q 2775 3584 3186 3129 
Q 3597 2675 3597 1894 
z
M 3022 2063 
Q 3016 2534 2758 2815 
Q 2500 3097 2075 3097 
Q 1594 3097 1305 2825 
Q 1016 2553 972 2059 
L 3022 2063 
z
" transform="scale(0.015625)"/>
       <path id="DejaVuSans-6e" d="M 3513 2113 
L 3513 0 
L 2938 0 
L 2938 2094 
Q 2938 2591 2744 2837 
Q 2550 3084 2163 3084 
Q 1697 3084 1428 2787 
Q 1159 2491 1159 1978 
L 1159 0 
L 581 0 
L 581 3500 
L 1159 3500 
L 1159 2956 
Q 1366 3272 1645 3428 
Q 1925 3584 2291 3584 
Q 2894 3584 3203 3211 
Q 3513 2838 3513 2113 
z
" transform="scale(0.015625)"/>
       <path id="DejaVuSans-74" d="M 1172 4494 
L 1172 3500 
L 2356 3500 
L 2356 3053 
L 1172 3053 
L 1172 1153 
Q 1172 725 1289 603 
Q 1406 481 1766 481 
L 2356 481 
L 2356 0 
L 1766 0 
Q 1100 0 847 248 
Q 594 497 594 1153 
L 594 3053 
L 172 3053 
L 172 3500 
L 594 3500 
L 594 4494 
L 1172 4494 
z
" transform="scale(0.015625)"/>
       <path id="DejaVuSans-69" d="M 603 3500 
L 1178 3500 
L 1178 0 
L 603 0 
L 603 3500 
z
M 603 4863 
L 1178 4863 
L 1178 4134 
L 603 4134 
L 603 4863 
z
" transform="scale(0.015625)"/>
       <path id="DejaVuSans-79" d="M 2059 -325 
Q 1816 -950 1584 -1140 
Q 1353 -1331 966 -1331 
L 506 -1331 
L 506 -850 
L 844 -850 
Q 1081 -850 1212 -737 
Q 1344 -625 1503 -206 
L 1606 56 
L 191 3500 
L 800 3500 
L 1894 763 
L 2988 3500 
L 3597 3500 
L 2059 -325 
z
" transform="scale(0.015625)"/>
       <path id="DejaVuSans-20" transform="scale(0.015625)"/>
       <path id="DejaVuSans-73" d="M 2834 3397 
L 2834 2853 
Q 2591 2978 2328 3040 
Q 2066 3103 1784 3103 
Q 1356 3103 1142 2972 
Q 928 2841 928 2578 
Q 928 2378 1081 2264 
Q 1234 2150 1697 2047 
L 1894 2003 
Q 2506 1872 2764 1633 
Q 3022 1394 3022 966 
Q 3022 478 2636 193 
Q 2250 -91 1575 -91 
Q 1294 -91 989 -36 
Q 684 19 347 128 
L 347 722 
Q 666 556 975 473 
Q 1284 391 1588 391 
Q 1994 391 2212 530 
Q 2431 669 2431 922 
Q 2431 1156 2273 1281 
Q 2116 1406 1581 1522 
L 1381 1569 
Q 847 1681 609 1914 
Q 372 2147 372 2553 
Q 372 3047 722 3315 
Q 1072 3584 1716 3584 
Q 2034 3584 2315 3537 
Q 2597 3491 2834 3397 
z
" transform="scale(0.015625)"/>
       <path id="DejaVuSans-63" d="M 3122 3366 
L 3122 2828 
Q 2878 2963 2633 3030 
Q 2388 3097 2138 3097 
Q 1578 3097 1268 2742 
Q 959 2388 959 1747 
Q 959 1106 1268 751 
Q 1578 397 2138 397 
Q 2388 397 2633 464 
Q 2878 531 3122 666 
L 3122 134 
Q 2881 22 2623 -34 
Q 2366 -91 2075 -91 
Q 1284 -91 818 406 
Q 353 903 353 1747 
Q 353 2603 823 3093 
Q 1294 3584 2113 3584 
Q 2378 3584 2631 3529 
Q 2884 3475 3122 3366 
z
" transform="scale(0.015625)"/>
       <path id="DejaVuSans-6f" d="M 1959 3097 
Q 1497 3097 1228 2736 
Q 959 2375 959 1747 
Q 959 1119 1226 758 
Q 1494 397 1959 397 
Q 2419 397 2687 759 
Q 2956 1122 2956 1747 
Q 2956 2369 2687 2733 
Q 2419 3097 1959 3097 
z
M 1959 3584 
Q 2709 3584 3137 3096 
Q 3566 2609 3566 1747 
Q 3566 888 3137 398 
Q 2709 -91 1959 -91 
Q 1206 -91 779 398 
Q 353 888 353 1747 
Q 353 2609 779 3096 
Q 1206 3584 1959 3584 
z
" transform="scale(0.015625)"/>
       <path id="DejaVuSans-72" d="M 2631 2963 
Q 2534 3019 2420 3045 
Q 2306 3072 2169 3072 
Q 1681 3072 1420 2755 
Q 1159 2438 1159 1844 
L 1159 0 
L 581 0 
L 581 3500 
L 1159 3500 
L 1159 2956 
Q 1341 3275 1631 3429 
Q 1922 3584 2338 3584 
Q 2397 3584 2469 3576 
Q 2541 3569 2628 3553 
L 2631 2963 
z
" transform="scale(0.015625)"/>
      </defs>
      <use xlink:href="#DejaVuSans-49"/>
      <use xlink:href="#DejaVuSans-64" x="29.492188"/>
      <use xlink:href="#DejaVuSans-65" x="92.96875"/>
      <use xlink:href="#DejaVuSans-6e" x="154.492188"/>
      <use xlink:href="#DejaVuSans-74" x="217.871094"/>
      <use xlink:href="#DejaVuSans-69" x="257.080078"/>
      <use xlink:href="#DejaVuSans-74" x="284.863281"/>
      <use xlink:href="#DejaVuSans-79" x="324.072266"/>
      <use xlink:href="#DejaVuSans-20" x="383.251953"/>
      <use xlink:href="#DejaVuSans-73" x="415.039062"/>
      <use xlink:href="#DejaVuSans-63" x="467.138672"/>
      <use xlink:href="#DejaVuSans-6f" x="522.119141"/>
      <use xlink:href="#DejaVuSans-72" x="583.300781"/>
      <use xlink:href="#DejaVuSans-65" x="622.164062"/>
     </g>
    </g>
   </g>
   <g id="matplotlib.axis_2">
    <g id="ytick_1">
     <g id="line2d_7">
      <path d="M 72 320.4 
L 518.4 320.4 
" clip-path="url(#p0ad25b2e73)" style="fill: none; stroke: #cccccc; stroke-linecap: round"/>
     </g>
     <g id="text_8">
      <!-- 0 -->
      <g style="fill: #262626" transform="translate(55.50125 324.579141) scale(0.11 -0.11)">
       <use xlink:href="#DejaVuSans-30"/>
      </g>
     </g>
    </g>
    <g id="ytick_2">
     <g id="line2d_8">
      <path d="M 72 281.230861 
L 518.4 281.230861 
" clip-path="url(#p0ad25b2e73)" style="fill: none; stroke: #cccccc; stroke-linecap: round"/>
     </g>
     <g id="text_9">
      <!-- 100 -->
      <g style="fill: #262626" transform="translate(41.50375 285.410001) scale(0.11 -0.11)">
       <use xlink:href="#DejaVuSans-31"/>
       <use xlink:href="#DejaVuSans-30" x="63.623047"/>
       <use xlink:href="#DejaVuSans-30" x="127.246094"/>
      </g>
     </g>
    </g>
    <g id="ytick_3">
     <g id="line2d_9">
      <path d="M 72 242.061721 
L 518.4 242.061721 
" clip-path="url(#p0ad25b2e73)" style="fill: none; stroke: #cccccc; stroke-linecap: round"/>
     </g>
     <g id="text_10">
      <!-- 200 -->
      <g style="fill: #262626" transform="translate(41.50375 246.240862) scale(0.11 -0.11)">
       <defs>
        <path id="DejaVuSans-32" d="M 1228 531 
L 3431 531 
L 3431 0 
L 469 0 
L 469 531 
Q 828 903 1448 1529 
Q 2069 2156 2228 2338 
Q 2531 2678 2651 2914 
Q 2772 3150 2772 3378 
Q 2772 3750 2511 3984 
Q 2250 4219 1831 4219 
Q 1534 4219 1204 4116 
Q 875 4013 500 3803 
L 500 4441 
Q 881 4594 1212 4672 
Q 1544 4750 1819 4750 
Q 2544 4750 2975 4387 
Q 3406 4025 3406 3419 
Q 3406 3131 3298 2873 
Q 3191 2616 2906 2266 
Q 2828 2175 2409 1742 
Q 1991 1309 1228 531 
z
" transform="scale(0.015625)"/>
       </defs>
       <use xlink:href="#DejaVuSans-32"/>
       <use xlink:href="#DejaVuSans-30" x="63.623047"/>
       <use xlink:href="#DejaVuSans-30" x="127.246094"/>
      </g>
     </g>
    </g>
    <g id="ytick_4">
     <g id="line2d_10">
      <path d="M 72 202.892582 
L 518.4 202.892582 
" clip-path="url(#p0ad25b2e73)" style="fill: none; stroke: #cccccc; stroke-linecap: round"/>
     </g>
     <g id="text_11">
      <!-- 300 -->
      <g style="fill: #262626" transform="translate(41.50375 207.071722) scale(0.11 -0.11)">
       <defs>
        <path id="DejaVuSans-33" d="M 2597 2516 
Q 3050 2419 3304 2112 
Q 3559 1806 3559 1356 
Q 3559 666 3084 287 
Q 2609 -91 1734 -91 
Q 1441 -91 1130 -33 
Q 819 25 488 141 
L 488 750 
Q 750 597 1062 519 
Q 1375 441 1716 441 
Q 2309 441 2620 675 
Q 2931 909 2931 1356 
Q 2931 1769 2642 2001 
Q 2353 2234 1838 2234 
L 1294 2234 
L 1294 2753 
L 1863 2753 
Q 2328 2753 2575 2939 
Q 2822 3125 2822 3475 
Q 2822 3834 2567 4026 
Q 2313 4219 1838 4219 
Q 1578 4219 1281 4162 
Q 984 4106 628 3988 
L 628 4550 
Q 988 4650 1302 4700 
Q 1616 4750 1894 4750 
Q 2613 4750 3031 4423 
Q 3450 4097 3450 3541 
Q 3450 3153 3228 2886 
Q 3006 2619 2597 2516 
z
" transform="scale(0.015625)"/>
       </defs>
       <use xlink:href="#DejaVuSans-33"/>
       <use xlink:href="#DejaVuSans-30" x="63.623047"/>
       <use xlink:href="#DejaVuSans-30" x="127.246094"/>
      </g>
     </g>
    </g>
    <g id="ytick_5">
     <g id="line2d_11">
      <path d="M 72 163.723442 
L 518.4 163.723442 
" clip-path="url(#p0ad25b2e73)" style="fill: none; stroke: #cccccc; stroke-linecap: round"/>
     </g>
     <g id="text_12">
      <!-- 400 -->
      <g style="fill: #262626" transform="translate(41.50375 167.902583) scale(0.11 -0.11)">
       <defs>
        <path id="DejaVuSans-34" d="M 2419 4116 
L 825 1625 
L 2419 1625 
L 2419 4116 
z
M 2253 4666 
L 3047 4666 
L 3047 1625 
L 3713 1625 
L 3713 1100 
L 3047 1100 
L 3047 0 
L 2419 0 
L 2419 1100 
L 313 1100 
L 313 1709 
L 2253 4666 
z
" transform="scale(0.015625)"/>
       </defs>
       <use xlink:href="#DejaVuSans-34"/>
       <use xlink:href="#DejaVuSans-30" x="63.623047"/>
       <use xlink:href="#DejaVuSans-30" x="127.246094"/>
      </g>
     </g>
    </g>
    <g id="ytick_6">
     <g id="line2d_12">
      <path d="M 72 124.554303 
L 518.4 124.554303 
" clip-path="url(#p0ad25b2e73)" style="fill: none; stroke: #cccccc; stroke-linecap: round"/>
     </g>
     <g id="text_13">
      <!-- 500 -->
      <g style="fill: #262626" transform="translate(41.50375 128.733443) scale(0.11 -0.11)">
       <use xlink:href="#DejaVuSans-35"/>
       <use xlink:href="#DejaVuSans-30" x="63.623047"/>
       <use xlink:href="#DejaVuSans-30" x="127.246094"/>
      </g>
     </g>
    </g>
    <g id="ytick_7">
     <g id="line2d_13">
      <path d="M 72 85.385163 
L 518.4 85.385163 
" clip-path="url(#p0ad25b2e73)" style="fill: none; stroke: #cccccc; stroke-linecap: round"/>
     </g>
     <g id="text_14">
      <!-- 600 -->
      <g style="fill: #262626" transform="translate(41.50375 89.564304) scale(0.11 -0.11)">
       <use xlink:href="#DejaVuSans-36"/>
       <use xlink:href="#DejaVuSans-30" x="63.623047"/>
       <use xlink:href="#DejaVuSans-30" x="127.246094"/>
      </g>
     </g>
    </g>
    <g id="ytick_8">
     <g id="line2d_14">
      <path d="M 72 46.216024 
L 518.4 46.216024 
" clip-path="url(#p0ad25b2e73)" style="fill: none; stroke: #cccccc; stroke-linecap: round"/>
     </g>
     <g id="text_15">
      <!-- 700 -->
      <g style="fill: #262626" transform="translate(41.50375 50.395164) scale(0.11 -0.11)">
       <use xlink:href="#DejaVuSans-37"/>
       <use xlink:href="#DejaVuSans-30" x="63.623047"/>
       <use xlink:href="#DejaVuSans-30" x="127.246094"/>
      </g>
     </g>
    </g>
    <g id="text_16">
     <!-- Count -->
     <g style="fill: #262626" transform="translate(35.008125 199.618125) rotate(-90) scale(0.12 -0.12)">
      <defs>
       <path id="DejaVuSans-43" d="M 4122 4306 
L 4122 3641 
Q 3803 3938 3442 4084 
Q 3081 4231 2675 4231 
Q 1875 4231 1450 3742 
Q 1025 3253 1025 2328 
Q 1025 1406 1450 917 
Q 1875 428 2675 428 
Q 3081 428 3442 575 
Q 3803 722 4122 1019 
L 4122 359 
Q 3791 134 3420 21 
Q 3050 -91 2638 -91 
Q 1578 -91 968 557 
Q 359 1206 359 2328 
Q 359 3453 968 4101 
Q 1578 4750 2638 4750 
Q 3056 4750 3426 4639 
Q 3797 4528 4122 4306 
z
" transform="scale(0.015625)"/>
       <path id="DejaVuSans-75" d="M 544 1381 
L 544 3500 
L 1119 3500 
L 1119 1403 
Q 1119 906 1312 657 
Q 1506 409 1894 409 
Q 2359 409 2629 706 
Q 2900 1003 2900 1516 
L 2900 3500 
L 3475 3500 
L 3475 0 
L 2900 0 
L 2900 538 
Q 2691 219 2414 64 
Q 2138 -91 1772 -91 
Q 1169 -91 856 284 
Q 544 659 544 1381 
z
M 1991 3584 
L 1991 3584 
z
" transform="scale(0.015625)"/>
      </defs>
      <use xlink:href="#DejaVuSans-43"/>
      <use xlink:href="#DejaVuSans-6f" x="69.824219"/>
      <use xlink:href="#DejaVuSans-75" x="131.005859"/>
      <use xlink:href="#DejaVuSans-6e" x="194.384766"/>
      <use xlink:href="#DejaVuSans-74" x="257.763672"/>
     </g>
    </g>
   </g>
   <g id="patch_3">
    <path d="M 92.290909 320.4 
L 114.836364 320.4 
L 114.836364 300.81543 
L 92.290909 300.81543 
z
" clip-path="url(#p0ad25b2e73)" style="fill: #dd8452; fill-opacity: 0.5; stroke: #ffffff; stroke-linejoin: miter"/>
   </g>
   <g id="patch_4">
    <path d="M 114.836364 320.4 
L 137.381818 320.4 
L 137.381818 309.432641 
L 114.836364 309.432641 
z
" clip-path="url(#p0ad25b2e73)" style="fill: #dd8452; fill-opacity: 0.5; stroke: #ffffff; stroke-linejoin: miter"/>
   </g>
   <g id="patch_5">
    <path d="M 137.381818 320.4 
L 159.927273 320.4 
L 159.927273 307.474184 
L 137.381818 307.474184 
z
" clip-path="url(#p0ad25b2e73)" style="fill: #dd8452; fill-opacity: 0.5; stroke: #ffffff; stroke-linejoin: miter"/>
   </g>
   <g id="patch_6">
    <path d="M 159.927273 320.4 
L 182.472727 320.4 
L 182.472727 306.29911 
L 159.927273 306.29911 
z
" clip-path="url(#p0ad25b2e73)" style="fill: #dd8452; fill-opacity: 0.5; stroke: #ffffff; stroke-linejoin: miter"/>
   </g>
   <g id="patch_7">
    <path d="M 182.472727 320.4 
L 205.018182 320.4 
L 205.018182 302.773887 
L 182.472727 302.773887 
z
" clip-path="url(#p0ad25b2e73)" style="fill: #dd8452; fill-opacity: 0.5; stroke: #ffffff; stroke-linejoin: miter"/>
   </g>
   <g id="patch_8">
    <path d="M 205.018182 320.4 
L 227.563636 320.4 
L 227.563636 291.806528 
L 205.018182 291.806528 
z
" clip-path="url(#p0ad25b2e73)" style="fill: #dd8452; fill-opacity: 0.5; stroke: #ffffff; stroke-linejoin: miter"/>
   </g>
   <g id="patch_9">
    <path d="M 227.563636 320.4 
L 250.109091 320.4 
L 250.109091 314.132938 
L 227.563636 314.132938 
z
" clip-path="url(#p0ad25b2e73)" style="fill: #dd8452; fill-opacity: 0.5; stroke: #ffffff; stroke-linejoin: miter"/>
   </g>
   <g id="patch_10">
    <path d="M 250.109091 320.4 
L 272.654545 320.4 
L 272.654545 301.990504 
L 250.109091 301.990504 
z
" clip-path="url(#p0ad25b2e73)" style="fill: #dd8452; fill-opacity: 0.5; stroke: #ffffff; stroke-linejoin: miter"/>
   </g>
   <g id="patch_11">
    <path d="M 272.654545 320.4 
L 295.2 320.4 
L 295.2 305.124036 
L 272.654545 305.124036 
z
" clip-path="url(#p0ad25b2e73)" style="fill: #dd8452; fill-opacity: 0.5; stroke: #ffffff; stroke-linejoin: miter"/>
   </g>
   <g id="patch_12">
    <path d="M 295.2 320.4 
L 317.745455 320.4 
L 317.745455 283.581009 
L 295.2 283.581009 
z
" clip-path="url(#p0ad25b2e73)" style="fill: #dd8452; fill-opacity: 0.5; stroke: #ffffff; stroke-linejoin: miter"/>
   </g>
   <g id="patch_13">
    <path d="M 317.745455 320.4 
L 340.290909 320.4 
L 340.290909 291.414837 
L 317.745455 291.414837 
z
" clip-path="url(#p0ad25b2e73)" style="fill: #dd8452; fill-opacity: 0.5; stroke: #ffffff; stroke-linejoin: miter"/>
   </g>
   <g id="patch_14">
    <path d="M 340.290909 320.4 
L 362.836364 320.4 
L 362.836364 301.207122 
L 340.290909 301.207122 
z
" clip-path="url(#p0ad25b2e73)" style="fill: #dd8452; fill-opacity: 0.5; stroke: #ffffff; stroke-linejoin: miter"/>
   </g>
   <g id="patch_15">
    <path d="M 362.836364 320.4 
L 385.381818 320.4 
L 385.381818 276.138872 
L 362.836364 276.138872 
z
" clip-path="url(#p0ad25b2e73)" style="fill: #dd8452; fill-opacity: 0.5; stroke: #ffffff; stroke-linejoin: miter"/>
   </g>
   <g id="patch_16">
    <path d="M 385.381818 320.4 
L 407.927273 320.4 
L 407.927273 279.272404 
L 385.381818 279.272404 
z
" clip-path="url(#p0ad25b2e73)" style="fill: #dd8452; fill-opacity: 0.5; stroke: #ffffff; stroke-linejoin: miter"/>
   </g>
   <g id="patch_17">
    <path d="M 407.927273 320.4 
L 430.472727 320.4 
L 430.472727 253.420772 
L 407.927273 253.420772 
z
" clip-path="url(#p0ad25b2e73)" style="fill: #dd8452; fill-opacity: 0.5; stroke: #ffffff; stroke-linejoin: miter"/>
   </g>
   <g id="patch_18">
    <path d="M 430.472727 320.4 
L 453.018182 320.4 
L 453.018182 282.405935 
L 430.472727 282.405935 
z
" clip-path="url(#p0ad25b2e73)" style="fill: #dd8452; fill-opacity: 0.5; stroke: #ffffff; stroke-linejoin: miter"/>
   </g>
   <g id="patch_19">
    <path d="M 453.018182 320.4 
L 475.563636 320.4 
L 475.563636 302.382196 
L 453.018182 302.382196 
z
" clip-path="url(#p0ad25b2e73)" style="fill: #dd8452; fill-opacity: 0.5; stroke: #ffffff; stroke-linejoin: miter"/>
   </g>
   <g id="patch_20">
    <path d="M 475.563636 320.4 
L 498.109091 320.4 
L 498.109091 56.791691 
L 475.563636 56.791691 
z
" clip-path="url(#p0ad25b2e73)" style="fill: #dd8452; fill-opacity: 0.5; stroke: #ffffff; stroke-linejoin: miter"/>
   </g>
   <g id="patch_21">
    <path d="M 92.290909 320.4 
L 114.836364 320.4 
L 114.836364 292.19822 
L 92.290909 292.19822 
z
" clip-path="url(#p0ad25b2e73)" style="fill: #4c72b0; fill-opacity: 0.5; stroke: #ffffff; stroke-linejoin: miter"/>
   </g>
   <g id="patch_22">
    <path d="M 114.836364 320.4 
L 137.381818 320.4 
L 137.381818 316.091395 
L 114.836364 316.091395 
z
" clip-path="url(#p0ad25b2e73)" style="fill: #4c72b0; fill-opacity: 0.5; stroke: #ffffff; stroke-linejoin: miter"/>
   </g>
   <g id="patch_23">
    <path d="M 137.381818 320.4 
L 159.927273 320.4 
L 159.927273 308.649258 
L 137.381818 308.649258 
z
" clip-path="url(#p0ad25b2e73)" style="fill: #4c72b0; fill-opacity: 0.5; stroke: #ffffff; stroke-linejoin: miter"/>
   </g>
   <g id="patch_24">
    <path d="M 159.927273 320.4 
L 182.472727 320.4 
L 182.472727 302.382196 
L 159.927273 302.382196 
z
" clip-path="url(#p0ad25b2e73)" style="fill: #4c72b0; fill-opacity: 0.5; stroke: #ffffff; stroke-linejoin: miter"/>
   </g>
   <g id="patch_25">
    <path d="M 182.472727 320.4 
L 205.018182 320.4 
L 205.018182 306.29911 
L 182.472727 306.29911 
z
" clip-path="url(#p0ad25b2e73)" style="fill: #4c72b0; fill-opacity: 0.5; stroke: #ffffff; stroke-linejoin: miter"/>
   </g>
   <g id="patch_26">
    <path d="M 205.018182 320.4 
L 227.563636 320.4 
L 227.563636 291.806528 
L 205.018182 291.806528 
z
" clip-path="url(#p0ad25b2e73)" style="fill: #4c72b0; fill-opacity: 0.5; stroke: #ffffff; stroke-linejoin: miter"/>
   </g>
   <g id="patch_27">
    <path d="M 227.563636 320.4 
L 250.109091 320.4 
L 250.109091 312.566172 
L 227.563636 312.566172 
z
" clip-path="url(#p0ad25b2e73)" style="fill: #4c72b0; fill-opacity: 0.5; stroke: #ffffff; stroke-linejoin: miter"/>
   </g>
   <g id="patch_28">
    <path d="M 250.109091 320.4 
L 272.654545 320.4 
L 272.654545 300.81543 
L 250.109091 300.81543 
z
" clip-path="url(#p0ad25b2e73)" style="fill: #4c72b0; fill-opacity: 0.5; stroke: #ffffff; stroke-linejoin: miter"/>
   </g>
   <g id="patch_29">
    <path d="M 272.654545 320.4 
L 295.2 320.4 
L 295.2 308.649258 
L 272.654545 308.649258 
z
" clip-path="url(#p0ad25b2e73)" style="fill: #4c72b0; fill-opacity: 0.5; stroke: #ffffff; stroke-linejoin: miter"/>
   </g>
   <g id="patch_30">
    <path d="M 295.2 320.4 
L 317.745455 320.4 
L 317.745455 286.71454 
L 295.2 286.71454 
z
" clip-path="url(#p0ad25b2e73)" style="fill: #4c72b0; fill-opacity: 0.5; stroke: #ffffff; stroke-linejoin: miter"/>
   </g>
   <g id="patch_31">
    <path d="M 317.745455 320.4 
L 340.290909 320.4 
L 340.290909 294.548368 
L 317.745455 294.548368 
z
" clip-path="url(#p0ad25b2e73)" style="fill: #4c72b0; fill-opacity: 0.5; stroke: #ffffff; stroke-linejoin: miter"/>
   </g>
   <g id="patch_32">
    <path d="M 340.290909 320.4 
L 362.836364 320.4 
L 362.836364 292.981602 
L 340.290909 292.981602 
z
" clip-path="url(#p0ad25b2e73)" style="fill: #4c72b0; fill-opacity: 0.5; stroke: #ffffff; stroke-linejoin: miter"/>
   </g>
   <g id="patch_33">
    <path d="M 362.836364 320.4 
L 385.381818 320.4 
L 385.381818 268.696736 
L 362.836364 268.696736 
z
" clip-path="url(#p0ad25b2e73)" style="fill: #4c72b0; fill-opacity: 0.5; stroke: #ffffff; stroke-linejoin: miter"/>
   </g>
   <g id="patch_34">
    <path d="M 385.381818 320.4 
L 407.927273 320.4 
L 407.927273 281.230861 
L 385.381818 281.230861 
z
" clip-path="url(#p0ad25b2e73)" style="fill: #4c72b0; fill-opacity: 0.5; stroke: #ffffff; stroke-linejoin: miter"/>
   </g>
   <g id="patch_35">
    <path d="M 407.927273 320.4 
L 430.472727 320.4 
L 430.472727 258.904451 
L 407.927273 258.904451 
z
" clip-path="url(#p0ad25b2e73)" style="fill: #4c72b0; fill-opacity: 0.5; stroke: #ffffff; stroke-linejoin: miter"/>
   </g>
   <g id="patch_36">
    <path d="M 430.472727 320.4 
L 453.018182 320.4 
L 453.018182 289.45638 
L 430.472727 289.45638 
z
" clip-path="url(#p0ad25b2e73)" style="fill: #4c72b0; fill-opacity: 0.5; stroke: #ffffff; stroke-linejoin: miter"/>
   </g>
   <g id="patch_37">
    <path d="M 453.018182 320.4 
L 475.563636 320.4 
L 475.563636 298.073591 
L 453.018182 298.073591 
z
" clip-path="url(#p0ad25b2e73)" style="fill: #4c72b0; fill-opacity: 0.5; stroke: #ffffff; stroke-linejoin: miter"/>
   </g>
   <g id="patch_38">
    <path d="M 475.563636 320.4 
L 498.109091 320.4 
L 498.109091 56.4 
L 475.563636 56.4 
z
" clip-path="url(#p0ad25b2e73)" style="fill: #4c72b0; fill-opacity: 0.5; stroke: #ffffff; stroke-linejoin: miter"/>
   </g>
   <g id="line2d_15">
    <path d="M 92.290909 311.477674 
L 98.408771 310.705344 
L 106.565921 309.930323 
L 116.762357 309.260882 
L 135.115943 308.385936 
L 157.548104 307.283989 
L 169.783828 306.47649 
L 182.019552 305.449459 
L 210.569575 302.869923 
L 218.726725 302.420655 
L 226.883874 302.196959 
L 253.394609 301.765762 
L 259.512471 301.292965 
L 265.630333 300.577661 
L 271.748196 299.63836 
L 279.905345 298.141321 
L 294.180356 295.429346 
L 302.337506 294.140809 
L 310.494655 293.136259 
L 320.691092 292.181546 
L 334.966103 290.886997 
L 343.123253 289.881614 
L 349.241115 288.910534 
L 355.358977 287.721948 
L 361.476839 286.30659 
L 367.594701 284.677242 
L 375.75185 282.24708 
L 390.026862 277.875724 
L 396.144724 276.273055 
L 400.223298 275.387817 
L 404.301873 274.681116 
L 408.380448 274.166793 
L 412.459022 273.842012 
L 418.576884 273.652354 
L 430.812608 273.512218 
L 434.891183 273.13829 
L 436.930471 272.81161 
L 438.969758 272.366538 
L 441.009045 271.784524 
L 443.048333 271.047985 
L 445.08762 270.140909 
L 447.126907 269.049503 
L 449.166195 267.762851 
L 451.205482 266.273565 
L 453.244769 264.578417 
L 455.284057 262.678902 
L 457.323344 260.581723 
L 459.362631 258.299164 
L 463.441206 253.256179 
L 467.519781 247.764544 
L 473.637643 239.363089 
L 477.716217 234.205445 
L 479.755505 231.912989 
L 481.794792 229.87885 
L 483.834079 228.150518 
L 485.873367 226.771437 
L 487.912654 225.779778 
L 489.951942 225.207321 
L 491.991229 225.078519 
L 494.030516 225.409765 
L 496.069804 226.208896 
L 498.109091 227.474949 
L 498.109091 227.474949 
" clip-path="url(#p0ad25b2e73)" style="fill: none; stroke: #dd8452; stroke-width: 1.5; stroke-linecap: round"/>
   </g>
   <g id="line2d_16">
    <path d="M 92.290909 309.416713 
L 96.369484 309.037369 
L 102.487346 308.751347 
L 108.605208 308.751992 
L 116.762357 309.027399 
L 128.998081 309.490841 
L 137.155231 309.542018 
L 143.273093 309.383626 
L 151.430242 308.927365 
L 161.626679 308.07792 
L 188.137414 305.478293 
L 214.64815 302.938087 
L 222.805299 302.358898 
L 230.962449 301.972075 
L 245.23746 301.589418 
L 255.433897 301.196573 
L 263.591046 300.615809 
L 271.748196 299.767839 
L 281.944632 298.449195 
L 312.533942 294.184824 
L 320.691092 292.768088 
L 326.808954 291.512566 
L 334.966103 289.590614 
L 363.516126 282.460484 
L 371.673275 280.789139 
L 379.830425 279.328043 
L 387.987574 278.079794 
L 394.105436 277.314272 
L 400.223298 276.738137 
L 406.34116 276.385963 
L 412.459022 276.257716 
L 428.773321 276.153136 
L 432.851896 275.766765 
L 436.930471 275.006311 
L 438.969758 274.444061 
L 441.009045 273.738743 
L 443.048333 272.875285 
L 445.08762 271.840261 
L 447.126907 270.622479 
L 449.166195 269.213584 
L 451.205482 267.608639 
L 453.244769 265.806674 
L 455.284057 263.811182 
L 457.323344 261.63052 
L 461.401919 256.773147 
L 465.480493 251.40692 
L 475.67693 237.604196 
L 477.716217 235.130252 
L 479.755505 232.863928 
L 481.794792 230.852364 
L 483.834079 229.140081 
L 485.873367 227.767788 
L 487.912654 226.771262 
L 489.951942 226.180336 
L 491.991229 226.018045 
L 494.030516 226.299951 
L 496.069804 227.033682 
L 498.109091 228.218694 
L 498.109091 228.218694 
" clip-path="url(#p0ad25b2e73)" style="fill: none; stroke: #4c72b0; stroke-width: 1.5; stroke-linecap: round"/>
   </g>
   <g id="patch_39">
    <path d="M 72 320.4 
L 72 43.2 
" style="fill: none; stroke: #cccccc; stroke-width: 1.25; stroke-linejoin: miter; stroke-linecap: square"/>
   </g>
   <g id="patch_40">
    <path d="M 518.4 320.4 
L 518.4 43.2 
" style="fill: none; stroke: #cccccc; stroke-width: 1.25; stroke-linejoin: miter; stroke-linecap: square"/>
   </g>
   <g id="patch_41">
    <path d="M 72 320.4 
L 518.4 320.4 
" style="fill: none; stroke: #cccccc; stroke-width: 1.25; stroke-linejoin: miter; stroke-linecap: square"/>
   </g>
   <g id="patch_42">
    <path d="M 72 43.2 
L 518.4 43.2 
" style="fill: none; stroke: #cccccc; stroke-width: 1.25; stroke-linejoin: miter; stroke-linecap: square"/>
   </g>
   <g id="text_17">
    <!-- Mean identity score per site 50 nt context in 7 species, mitochondria -->
    <g style="fill: #262626" transform="translate(88.321875 37.2) scale(0.12 -0.12)">
     <defs>
      <path id="DejaVuSans-4d" d="M 628 4666 
L 1569 4666 
L 2759 1491 
L 3956 4666 
L 4897 4666 
L 4897 0 
L 4281 0 
L 4281 4097 
L 3078 897 
L 2444 897 
L 1241 4097 
L 1241 0 
L 628 0 
L 628 4666 
z
" transform="scale(0.015625)"/>
      <path id="DejaVuSans-61" d="M 2194 1759 
Q 1497 1759 1228 1600 
Q 959 1441 959 1056 
Q 959 750 1161 570 
Q 1363 391 1709 391 
Q 2188 391 2477 730 
Q 2766 1069 2766 1631 
L 2766 1759 
L 2194 1759 
z
M 3341 1997 
L 3341 0 
L 2766 0 
L 2766 531 
Q 2569 213 2275 61 
Q 1981 -91 1556 -91 
Q 1019 -91 701 211 
Q 384 513 384 1019 
Q 384 1609 779 1909 
Q 1175 2209 1959 2209 
L 2766 2209 
L 2766 2266 
Q 2766 2663 2505 2880 
Q 2244 3097 1772 3097 
Q 1472 3097 1187 3025 
Q 903 2953 641 2809 
L 641 3341 
Q 956 3463 1253 3523 
Q 1550 3584 1831 3584 
Q 2591 3584 2966 3190 
Q 3341 2797 3341 1997 
z
" transform="scale(0.015625)"/>
      <path id="DejaVuSans-70" d="M 1159 525 
L 1159 -1331 
L 581 -1331 
L 581 3500 
L 1159 3500 
L 1159 2969 
Q 1341 3281 1617 3432 
Q 1894 3584 2278 3584 
Q 2916 3584 3314 3078 
Q 3713 2572 3713 1747 
Q 3713 922 3314 415 
Q 2916 -91 2278 -91 
Q 1894 -91 1617 61 
Q 1341 213 1159 525 
z
M 3116 1747 
Q 3116 2381 2855 2742 
Q 2594 3103 2138 3103 
Q 1681 3103 1420 2742 
Q 1159 2381 1159 1747 
Q 1159 1113 1420 752 
Q 1681 391 2138 391 
Q 2594 391 2855 752 
Q 3116 1113 3116 1747 
z
" transform="scale(0.015625)"/>
      <path id="DejaVuSans-78" d="M 3513 3500 
L 2247 1797 
L 3578 0 
L 2900 0 
L 1881 1375 
L 863 0 
L 184 0 
L 1544 1831 
L 300 3500 
L 978 3500 
L 1906 2253 
L 2834 3500 
L 3513 3500 
z
" transform="scale(0.015625)"/>
      <path id="DejaVuSans-2c" d="M 750 794 
L 1409 794 
L 1409 256 
L 897 -744 
L 494 -744 
L 750 256 
L 750 794 
z
" transform="scale(0.015625)"/>
      <path id="DejaVuSans-6d" d="M 3328 2828 
Q 3544 3216 3844 3400 
Q 4144 3584 4550 3584 
Q 5097 3584 5394 3201 
Q 5691 2819 5691 2113 
L 5691 0 
L 5113 0 
L 5113 2094 
Q 5113 2597 4934 2840 
Q 4756 3084 4391 3084 
Q 3944 3084 3684 2787 
Q 3425 2491 3425 1978 
L 3425 0 
L 2847 0 
L 2847 2094 
Q 2847 2600 2669 2842 
Q 2491 3084 2119 3084 
Q 1678 3084 1418 2786 
Q 1159 2488 1159 1978 
L 1159 0 
L 581 0 
L 581 3500 
L 1159 3500 
L 1159 2956 
Q 1356 3278 1631 3431 
Q 1906 3584 2284 3584 
Q 2666 3584 2933 3390 
Q 3200 3197 3328 2828 
z
" transform="scale(0.015625)"/>
      <path id="DejaVuSans-68" d="M 3513 2113 
L 3513 0 
L 2938 0 
L 2938 2094 
Q 2938 2591 2744 2837 
Q 2550 3084 2163 3084 
Q 1697 3084 1428 2787 
Q 1159 2491 1159 1978 
L 1159 0 
L 581 0 
L 581 4863 
L 1159 4863 
L 1159 2956 
Q 1366 3272 1645 3428 
Q 1925 3584 2291 3584 
Q 2894 3584 3203 3211 
Q 3513 2838 3513 2113 
z
" transform="scale(0.015625)"/>
     </defs>
     <use xlink:href="#DejaVuSans-4d"/>
     <use xlink:href="#DejaVuSans-65" x="86.279297"/>
     <use xlink:href="#DejaVuSans-61" x="147.802734"/>
     <use xlink:href="#DejaVuSans-6e" x="209.082031"/>
     <use xlink:href="#DejaVuSans-20" x="272.460938"/>
     <use xlink:href="#DejaVuSans-69" x="304.248047"/>
     <use xlink:href="#DejaVuSans-64" x="332.03125"/>
     <use xlink:href="#DejaVuSans-65" x="395.507812"/>
     <use xlink:href="#DejaVuSans-6e" x="457.03125"/>
     <use xlink:href="#DejaVuSans-74" x="520.410156"/>
     <use xlink:href="#DejaVuSans-69" x="559.619141"/>
     <use xlink:href="#DejaVuSans-74" x="587.402344"/>
     <use xlink:href="#DejaVuSans-79" x="626.611328"/>
     <use xlink:href="#DejaVuSans-20" x="685.791016"/>
     <use xlink:href="#DejaVuSans-73" x="717.578125"/>
     <use xlink:href="#DejaVuSans-63" x="769.677734"/>
     <use xlink:href="#DejaVuSans-6f" x="824.658203"/>
     <use xlink:href="#DejaVuSans-72" x="885.839844"/>
     <use xlink:href="#DejaVuSans-65" x="924.703125"/>
     <use xlink:href="#DejaVuSans-20" x="986.226562"/>
     <use xlink:href="#DejaVuSans-70" x="1018.013672"/>
     <use xlink:href="#DejaVuSans-65" x="1081.490234"/>
     <use xlink:href="#DejaVuSans-72" x="1143.013672"/>
     <use xlink:href="#DejaVuSans-20" x="1184.126953"/>
     <use xlink:href="#DejaVuSans-73" x="1215.914062"/>
     <use xlink:href="#DejaVuSans-69" x="1268.013672"/>
     <use xlink:href="#DejaVuSans-74" x="1295.796875"/>
     <use xlink:href="#DejaVuSans-65" x="1335.005859"/>
     <use xlink:href="#DejaVuSans-20" x="1396.529297"/>
     <use xlink:href="#DejaVuSans-35" x="1428.316406"/>
     <use xlink:href="#DejaVuSans-30" x="1491.939453"/>
     <use xlink:href="#DejaVuSans-20" x="1555.5625"/>
     <use xlink:href="#DejaVuSans-6e" x="1587.349609"/>
     <use xlink:href="#DejaVuSans-74" x="1650.728516"/>
     <use xlink:href="#DejaVuSans-20" x="1689.9375"/>
     <use xlink:href="#DejaVuSans-63" x="1721.724609"/>
     <use xlink:href="#DejaVuSans-6f" x="1776.705078"/>
     <use xlink:href="#DejaVuSans-6e" x="1837.886719"/>
     <use xlink:href="#DejaVuSans-74" x="1901.265625"/>
     <use xlink:href="#DejaVuSans-65" x="1940.474609"/>
     <use xlink:href="#DejaVuSans-78" x="2000.248047"/>
     <use xlink:href="#DejaVuSans-74" x="2059.427734"/>
     <use xlink:href="#DejaVuSans-20" x="2098.636719"/>
     <use xlink:href="#DejaVuSans-69" x="2130.423828"/>
     <use xlink:href="#DejaVuSans-6e" x="2158.207031"/>
     <use xlink:href="#DejaVuSans-20" x="2221.585938"/>
     <use xlink:href="#DejaVuSans-37" x="2253.373047"/>
     <use xlink:href="#DejaVuSans-20" x="2316.996094"/>
     <use xlink:href="#DejaVuSans-73" x="2348.783203"/>
     <use xlink:href="#DejaVuSans-70" x="2400.882812"/>
     <use xlink:href="#DejaVuSans-65" x="2464.359375"/>
     <use xlink:href="#DejaVuSans-63" x="2525.882812"/>
     <use xlink:href="#DejaVuSans-69" x="2580.863281"/>
     <use xlink:href="#DejaVuSans-65" x="2608.646484"/>
     <use xlink:href="#DejaVuSans-73" x="2670.169922"/>
     <use xlink:href="#DejaVuSans-2c" x="2722.269531"/>
     <use xlink:href="#DejaVuSans-20" x="2754.056641"/>
     <use xlink:href="#DejaVuSans-6d" x="2785.84375"/>
     <use xlink:href="#DejaVuSans-69" x="2883.255859"/>
     <use xlink:href="#DejaVuSans-74" x="2911.039062"/>
     <use xlink:href="#DejaVuSans-6f" x="2950.248047"/>
     <use xlink:href="#DejaVuSans-63" x="3011.429688"/>
     <use xlink:href="#DejaVuSans-68" x="3066.410156"/>
     <use xlink:href="#DejaVuSans-6f" x="3129.789062"/>
     <use xlink:href="#DejaVuSans-6e" x="3190.970703"/>
     <use xlink:href="#DejaVuSans-64" x="3254.349609"/>
     <use xlink:href="#DejaVuSans-72" x="3317.826172"/>
     <use xlink:href="#DejaVuSans-69" x="3358.939453"/>
     <use xlink:href="#DejaVuSans-61" x="3386.722656"/>
    </g>
   </g>
   <g id="legend_1">
    <g id="patch_43">
     <path d="M 79.7 101.405625 
L 160.436563 101.405625 
Q 162.636563 101.405625 162.636563 99.205625 
L 162.636563 50.9 
Q 162.636563 48.7 160.436563 48.7 
L 79.7 48.7 
Q 77.5 48.7 77.5 50.9 
L 77.5 99.205625 
Q 77.5 101.405625 79.7 101.405625 
z
" style="fill: #ffffff; opacity: 0.8; stroke: #cccccc; stroke-linejoin: miter"/>
    </g>
    <g id="text_18">
     <!-- type -->
     <g style="fill: #262626" transform="translate(106.663906 62.218125) scale(0.12 -0.12)">
      <use xlink:href="#DejaVuSans-74"/>
      <use xlink:href="#DejaVuSans-79" x="39.208984"/>
      <use xlink:href="#DejaVuSans-70" x="98.388672"/>
      <use xlink:href="#DejaVuSans-65" x="161.865234"/>
     </g>
    </g>
    <g id="patch_44">
     <path d="M 81.9 78.572031 
L 103.9 78.572031 
L 103.9 70.872031 
L 81.9 70.872031 
z
" style="fill: #4c72b0; fill-opacity: 0.5; stroke: #ffffff; stroke-linejoin: miter"/>
    </g>
    <g id="text_19">
     <!-- GCS -->
     <g style="fill: #262626" transform="translate(112.7 78.572031) scale(0.11 -0.11)">
      <defs>
       <path id="DejaVuSans-47" d="M 3809 666 
L 3809 1919 
L 2778 1919 
L 2778 2438 
L 4434 2438 
L 4434 434 
Q 4069 175 3628 42 
Q 3188 -91 2688 -91 
Q 1594 -91 976 548 
Q 359 1188 359 2328 
Q 359 3472 976 4111 
Q 1594 4750 2688 4750 
Q 3144 4750 3555 4637 
Q 3966 4525 4313 4306 
L 4313 3634 
Q 3963 3931 3569 4081 
Q 3175 4231 2741 4231 
Q 1884 4231 1454 3753 
Q 1025 3275 1025 2328 
Q 1025 1384 1454 906 
Q 1884 428 2741 428 
Q 3075 428 3337 486 
Q 3600 544 3809 666 
z
" transform="scale(0.015625)"/>
       <path id="DejaVuSans-53" d="M 3425 4513 
L 3425 3897 
Q 3066 4069 2747 4153 
Q 2428 4238 2131 4238 
Q 1616 4238 1336 4038 
Q 1056 3838 1056 3469 
Q 1056 3159 1242 3001 
Q 1428 2844 1947 2747 
L 2328 2669 
Q 3034 2534 3370 2195 
Q 3706 1856 3706 1288 
Q 3706 609 3251 259 
Q 2797 -91 1919 -91 
Q 1588 -91 1214 -16 
Q 841 59 441 206 
L 441 856 
Q 825 641 1194 531 
Q 1563 422 1919 422 
Q 2459 422 2753 634 
Q 3047 847 3047 1241 
Q 3047 1584 2836 1778 
Q 2625 1972 2144 2069 
L 1759 2144 
Q 1053 2284 737 2584 
Q 422 2884 422 3419 
Q 422 4038 858 4394 
Q 1294 4750 2059 4750 
Q 2388 4750 2728 4690 
Q 3069 4631 3425 4513 
z
" transform="scale(0.015625)"/>
      </defs>
      <use xlink:href="#DejaVuSans-47"/>
      <use xlink:href="#DejaVuSans-43" x="77.490234"/>
      <use xlink:href="#DejaVuSans-53" x="147.314453"/>
     </g>
    </g>
    <g id="patch_45">
     <path d="M 81.9 94.717969 
L 103.9 94.717969 
L 103.9 87.017969 
L 81.9 87.017969 
z
" style="fill: #dd8452; fill-opacity: 0.5; stroke: #ffffff; stroke-linejoin: miter"/>
    </g>
    <g id="text_20">
     <!-- Random -->
     <g style="fill: #262626" transform="translate(112.7 94.717969) scale(0.11 -0.11)">
      <defs>
       <path id="DejaVuSans-52" d="M 2841 2188 
Q 3044 2119 3236 1894 
Q 3428 1669 3622 1275 
L 4263 0 
L 3584 0 
L 2988 1197 
Q 2756 1666 2539 1819 
Q 2322 1972 1947 1972 
L 1259 1972 
L 1259 0 
L 628 0 
L 628 4666 
L 2053 4666 
Q 2853 4666 3247 4331 
Q 3641 3997 3641 3322 
Q 3641 2881 3436 2590 
Q 3231 2300 2841 2188 
z
M 1259 4147 
L 1259 2491 
L 2053 2491 
Q 2509 2491 2742 2702 
Q 2975 2913 2975 3322 
Q 2975 3731 2742 3939 
Q 2509 4147 2053 4147 
L 1259 4147 
z
" transform="scale(0.015625)"/>
      </defs>
      <use xlink:href="#DejaVuSans-52"/>
      <use xlink:href="#DejaVuSans-61" x="67.232422"/>
      <use xlink:href="#DejaVuSans-6e" x="128.511719"/>
      <use xlink:href="#DejaVuSans-64" x="191.890625"/>
      <use xlink:href="#DejaVuSans-6f" x="255.367188"/>
      <use xlink:href="#DejaVuSans-6d" x="316.548828"/>
     </g>
    </g>
   </g>
  </g>
 </g>
 <defs>
  <clipPath id="p0ad25b2e73">
   <rect x="72" y="43.2" width="446.4" height="277.2"/>
  </clipPath>
 </defs>
</svg>
